<svg width="290" height="20" viewBox="0 0 290 20" fill="none" xmlns="http://www.w3.org/2000/svg">
<mask id="mask0_1_1486" style="mask-type:alpha" maskUnits="userSpaceOnUse" x="4" y="0" width="282" height="12">
<rect x="4" width="282" height="12" fill="#FF0000"/>
</mask>
<g mask="url(#mask0_1_1486)">
<path d="M50.6822 -2.80794L51.5461 -2.97112L49.8649 -3.20507L50.6708 -3.37632C51.4789 -3.37475 52.5259 -3.11815 53.0957 -3.25449C53.1653 -3.3865 52.2853 -3.42887 52.0608 -3.53405C51.8621 -3.64185 51.7 -3.74895 51.5762 -3.85407C52.0163 -3.85293 52.5002 -3.82751 52.999 -3.77929C53.67 -3.70052 54.3282 -3.66224 54.9008 -3.66865C56.0719 -3.64738 57.2033 -3.6686 58.4764 -3.66392L58.0528 -3.98162L59.6937 -3.9073C59.8676 -3.8831 60.0749 -3.92202 60.2458 -3.89208C61.6678 -3.63874 62.2695 -3.77679 62.9522 -3.89126C63.0922 -3.92087 63.2608 -3.94299 63.4535 -3.95702C65.3506 -3.89634 67.0612 -3.54123 68.7696 -3.35893C69.0911 -3.31239 69.3995 -3.25265 69.6729 -3.18394C70.2671 -3.05036 70.9281 -2.94131 71.5954 -2.86675C72.2626 -2.79219 72.9149 -2.7545 73.4925 -2.75713C74.7698 -2.76009 76.2128 -2.67173 77.682 -2.50064C78.1189 -2.44428 78.5561 -2.4071 78.9657 -2.39147C79.3753 -2.37584 79.7484 -2.38209 80.0609 -2.40985L81.0543 -2.22849C81.4848 -2.30208 82.0308 -2.34246 82.659 -2.34717C83.2873 -2.35188 83.9847 -2.32082 84.7089 -2.25589C85.4807 -2.18545 86.2646 -2.13797 87.0654 -2.06349C88.7195 -1.92112 90.3294 -1.83405 91.8449 -1.80498C94.1019 -1.71885 96.307 -1.65225 98.5838 -1.54487C100.008 -1.49304 101.396 -1.46453 102.739 -1.45949C104.348 -1.43922 106.088 -1.34107 107.875 -1.16978V-1.16978C107.791 -1.00908 107.007 -1.05656 106.481 -1.06199C104.784 -1.0887 103.047 -1.15792 101.301 -1.20992C100.514 -1.23021 99.7492 -1.2379 99.0103 -1.23292C97.7752 -1.23959 96.4731 -1.28241 95.1264 -1.36065C92.9989 -1.44675 90.9394 -1.48814 88.969 -1.48439C88.8145 -1.47803 88.673 -1.46675 88.5467 -1.45074C88.5204 -1.43688 88.5152 -1.4194 88.5316 -1.39997C88.5481 -1.38055 88.5856 -1.35984 88.6406 -1.33981C88.6956 -1.31979 88.7663 -1.30114 88.8458 -1.28563C88.9254 -1.27012 89.0112 -1.25827 89.095 -1.25123C89.8776 -1.14232 90.7181 -1.02535 91.4562 -1.0089C91.4847 -1.00767 91.5151 -1.00486 91.5452 -1.00067C91.5752 -0.996487 91.6042 -0.991029 91.6301 -0.984694C93.2822 -0.754774 94.6407 -0.793682 95.9277 -0.756275C98.0645 -0.655175 100.124 -0.607952 102.076 -0.615318C102.371 -0.614817 102.689 -0.601674 103.02 -0.576365C105.064 -0.473771 106.976 -0.462297 108.665 -0.54246C109.36 -0.562769 110.006 -0.608362 110.753 -0.609124C111.213 -0.612263 111.614 -0.641356 111.931 -0.694666C112.248 -0.747975 112.474 -0.824397 112.597 -0.919335C112.912 -0.869351 113.232 -0.824805 113.554 -0.786229C113.745 -0.764172 113.929 -0.758313 114.068 -0.769855C114.207 -0.781397 114.291 -0.809477 114.302 -0.848416C114.36 -0.957466 113.922 -1.01223 113.542 -1.05893C113.771 -1.08232 114.029 -1.09607 114.31 -1.09987C115.893 -1.12479 117.591 -1.09538 119.367 -1.01229C120.745 -0.912833 121.846 -0.993785 123.296 -0.853529C123.47 -0.829326 123.614 -0.864849 123.774 -0.873378C124.191 -0.918294 124.711 -0.928389 125.288 -0.902782C125.866 -0.877174 126.483 -0.816637 127.087 -0.72642C127.84 -0.972897 129.465 -0.691319 130.665 -0.666013C131.034 -0.540668 130.61 -0.562704 130.592 -0.528267C130.574 -0.49383 130.592 -0.528274 130.447 -0.548442C129.249 -0.370931 127.607 -0.332224 125.753 -0.437761C125.41 -0.437324 125.083 -0.429237 124.776 -0.413579C124.31 -0.391418 123.785 -0.393631 123.223 -0.420121C122.61 -0.439577 122.046 -0.430336 121.56 -0.392847C121.28 -0.393457 121.043 -0.374677 120.872 -0.338234C120.7 -0.301791 120.6 -0.248866 120.579 -0.18438C120.766 -0.134667 120.973 -0.0891787 121.192 -0.0497213C122.338 0.106072 123.481 0.170559 124.395 0.131051C125.987 0.0629798 127.881 0.129407 129.573 0.106168C130.717 0.0967538 131.934 0.12357 133.202 0.186115C133.202 0.186115 133.169 0.249249 133.166 0.254988C133.316 0.282323 133.473 0.304255 133.63 0.319529C133.63 0.319529 133.63 0.319529 133.645 0.290832C133.575 0.263273 133.481 0.237348 133.373 0.216057L132.996 0.163617C133.252 0.149971 133.492 0.10934 133.758 0.134165C134.321 0.180285 134.858 0.199755 135.339 0.191419C135.819 0.183083 136.232 0.147108 136.553 0.0856537C137.122 0.00689276 137.83 -0.0289248 138.631 -0.0194855C139.245 -0.028084 139.836 -0.0465651 140.402 -0.0748355C140.402 -0.0748355 140.439 -0.143703 140.707 -0.180308C140.453 -0.225455 140.188 -0.26232 139.924 -0.289213C138.778 -0.356401 137.628 -0.417851 136.501 -0.463786C136.086 -0.468748 135.695 -0.461052 135.337 -0.440847C134.346 -0.417202 133.232 -0.45076 132.06 -0.539564C132.06 -0.539564 131.828 -0.571831 131.713 -0.587966C132.041 -0.73936 133.175 -0.587797 133.633 -0.690325C133.912 -0.688459 134.403 -0.675566 134.386 -0.702557C134.348 -0.738576 134.344 -0.772037 134.373 -0.80054C134.403 -0.829043 134.465 -0.851883 134.557 -0.86742C134.648 -0.882958 134.766 -0.890812 134.902 -0.890413C135.038 -0.890013 135.189 -0.881369 135.343 -0.865109C136.634 -0.777149 137.849 -0.752689 138.915 -0.793226C139.319 -0.792443 139.772 -0.766373 140.173 -0.759851C140.418 -0.751995 140.642 -0.756364 140.833 -0.772717C141.802 -0.893151 143.106 -0.901946 144.549 -0.797782C145.246 -0.760332 145.898 -0.755324 146.47 -0.783014C146.877 -0.787971 147.049 -0.702345 147.339 -0.662008L148.57 -0.576977L146.989 -0.470432C147.327 -0.226263 147.596 -0.145752 148.148 -0.130541C148.953 -0.107569 149.737 -0.0971912 150.496 -0.0994713C151.057 -0.101478 151.521 -0.154062 152.28 -0.0606652C152.414 -0.0454317 152.544 -0.0405009 152.646 -0.0467006C153.536 -0.129616 154.607 -0.148646 155.787 -0.10249C156.398 -0.257757 157.438 -0.106797 158.401 0.0148361C158.711 -0.102121 158.149 -0.155809 157.813 -0.227171C158.618 -0.219866 159.429 -0.224037 160.26 -0.20696C160.51 -0.213177 160.796 -0.202542 161.095 -0.175891C161.394 -0.149241 161.698 -0.107306 161.984 -0.0533633C162.123 -0.0185089 162.291 0.00772334 162.452 0.019886C162.614 0.0320488 162.757 0.0292116 162.852 0.0119618C163.283 -0.038911 163.974 0.00794491 164.33 -0.0779869C164.457 -0.0977499 164.638 -0.100509 164.841 -0.0857816C165.044 -0.0710544 165.256 -0.0397936 165.439 0.00239578V0.00239578C165.239 0.015559 165.061 0.0362877 164.909 0.0641246C164.363 0.154552 164.564 0.305646 165.257 0.525311C166.321 0.51323 167.408 0.516661 168.394 0.475261C168.944 0.438097 169.618 0.449714 170.34 0.508809C171.061 0.567905 171.803 0.672133 172.48 0.809775C172.726 0.862704 173.005 0.899359 173.263 0.91247C173.522 0.925581 173.74 0.914182 173.874 0.880531C173.958 0.841614 173.984 0.792362 173.95 0.737044L173.254 0.640239C173.254 0.640239 173.282 0.588583 173.288 0.577104L174.288 0.568426C174.817 0.568125 175.369 0.58334 175.869 0.579005C176.604 0.550178 177.442 0.566246 178.333 0.626213C179.155 0.687703 179.963 0.734182 180.749 0.76524C181.51 0.797209 182.061 0.695296 182.786 0.679021C183.333 0.666753 183.936 0.679863 184.57 0.717839C185.665 0.785192 186.671 0.785317 187.494 0.718201C188.455 1.07981 188.921 1.1386 189.813 1.04089L190.232 1.01298L190.347 1.09054L190.667 1.07348C191.266 1.05829 191.865 1.04311 192.49 1.03769C193.36 1.07125 194.298 1.16153 195.215 1.29973C195.389 1.32393 195.625 1.40616 195.778 1.47054C195.931 1.53492 196.264 1.72913 196.508 1.85556C196.242 1.94785 195.946 2.03611 195.735 2.14221C195.714 2.16034 195.716 2.18195 195.741 2.20532C195.766 2.22868 195.814 2.25315 195.88 2.27675C195.946 2.30034 196.029 2.32241 196.122 2.34118C196.215 2.35996 196.316 2.37491 196.416 2.38484C196.611 2.40623 196.803 2.4205 196.985 2.42704C197.88 2.43833 198.738 2.42994 199.549 2.40196C199.845 2.36249 200.251 2.35873 200.702 2.39131C201.152 2.42388 201.622 2.49092 202.037 2.58178C203.098 2.52723 204.332 2.54335 205.652 2.62901C207.049 2.57691 208.735 2.68227 210.04 2.56812C210.01 2.62551 210.144 2.72433 210.332 2.78126C210.629 2.86774 210.965 2.94789 211.327 3.0183L214.086 3.15579C214.189 3.22649 214.318 3.29805 214.471 3.36956C214.576 3.42604 214.758 3.48131 214.98 3.52365C215.202 3.56599 215.445 3.59208 215.658 3.59637C216.207 3.61732 216.667 3.57048 217.322 3.68621C216.314 3.79561 214.954 3.78108 213.486 3.6452C212.106 3.54186 210.778 3.49021 209.553 3.49218C209.149 3.49139 208.616 3.49743 208.49 3.55994C208.21 3.73662 207.478 3.70869 206.624 3.6761C205.953 3.64043 205.341 3.64443 204.836 3.68778C204.332 3.73114 203.951 3.8126 203.724 3.92548C203.666 4.03453 203.804 4.12761 204.393 4.19107L206.841 4.44552C207.202 4.4128 207.544 4.37408 207.867 4.3295C208.41 4.2703 209.081 4.25405 209.827 4.28201C210.573 4.30998 211.374 4.38142 212.168 4.49075C212.574 4.54722 212.98 4.60369 213.274 4.57686C213.532 4.54604 213.77 4.50914 213.986 4.46642C214.029 4.4378 214.047 4.40485 214.037 4.36885C214.193 4.38559 214.35 4.40736 214.501 4.43339C215.71 4.73714 216.646 4.73189 217.496 4.6531C217.727 4.62968 217.902 4.59245 218.135 4.56329C218.368 4.53413 218.45 4.49629 218.662 4.5073C220.352 4.60692 220.839 4.27419 222.263 4.28756C222.332 4.27456 222.375 4.25513 222.388 4.23105C222.401 4.20698 222.383 4.17905 222.336 4.14981C222.235 4.12341 222.119 4.10071 221.997 4.0838C221.876 4.06688 221.753 4.05629 221.64 4.053C220.984 4.01031 220.406 4.02339 220.002 4.09004C219.717 4.11728 219.415 4.13897 219.097 4.15502L217.671 3.67318C219.053 3.71735 220.359 3.71706 221.561 3.67232C221.823 3.6472 222.267 3.69048 222.636 3.69871L225.35 3.74375C225.908 3.74748 226.383 3.67195 227.162 3.84802C227.162 3.84802 227.676 3.87642 227.813 3.85237C227.95 3.82833 228.558 3.67881 228.92 3.58139C229.341 3.60917 229.924 3.68411 230.186 3.65898C230.644 3.59727 231.041 3.51816 231.368 3.42306L233.008 3.55882C233.006 3.67941 232.946 3.79286 232.829 3.89745C232.702 3.9983 232.706 4.11938 232.842 4.25076C232.978 4.38214 233.242 4.5201 233.613 4.65337L235.232 5.35922C235.496 5.40648 235.778 5.4383 236.039 5.45035C236.299 5.4624 236.527 5.45409 236.69 5.42656C237.386 5.34482 238.167 5.28092 238.863 5.19919C239.762 5.32423 239.531 5.5262 240.184 5.70336L242.3 5.99781C242.623 6.27068 242.952 6.53207 241.97 6.62342C241.775 6.63939 241.907 6.74395 241.728 6.78692C242.491 6.99169 243.33 7.05299 244.104 7.17912C244.409 7.26982 244.664 7.36584 244.857 7.46253C245.068 7.60811 245.497 7.75683 246.051 7.87656C246.605 7.99629 247.239 8.07743 247.817 8.10246C248.786 8.17912 249.778 8.29425 250.749 8.4427C251.081 8.49432 251.421 8.53193 251.748 8.55299C252.075 8.57406 252.381 8.57808 252.645 8.56481C253.584 8.54144 254.379 8.46106 254.978 8.32891C255.571 8.21676 256.369 8.16271 257.301 8.17165C258.895 8.39351 259.217 8.7278 260.182 9.02224L258.515 9.05526C258.455 9.17005 258.565 9.31478 257.882 9.31213C257.199 9.30948 257.545 9.41931 257.767 9.53023C257.845 9.58602 257.997 9.64342 258.198 9.69269C258.399 9.74197 258.636 9.78009 258.869 9.80062L260.287 9.94259C260.79 9.99662 261.277 10.0197 261.694 10.0093C262.112 9.99885 262.443 9.95535 262.652 9.88353C262.892 9.81534 263.224 9.76921 263.626 9.74797C264.139 9.69234 264.56 9.60961 264.875 9.50289L266.878 9.65837C266.963 9.55113 267.238 9.47595 267.657 9.44551C268.075 9.41508 268.612 9.43126 269.175 9.49134L270.525 9.58677C272.026 9.69088 272.355 9.6566 272.794 9.35428L270.994 8.81426C271.256 8.67202 271.509 8.54699 271.761 8.42196C271.313 8.24405 270.715 8.07578 270.027 7.93423C269.386 7.78214 268.726 7.63483 268.051 7.49288C267.319 7.34783 266.545 7.2217 265.636 7.05818C265.477 7.00528 265.246 6.91158 264.952 6.82129C264.657 6.73356 264.349 6.64755 264.03 6.56362C264.09 6.44883 264.145 6.34552 264.029 6.21227C264.589 6.25479 265.167 6.32915 265.712 6.42866C266.257 6.52816 266.751 6.64968 267.15 6.78225C267.217 6.80576 267.3 6.82784 267.391 6.847C267.483 6.86617 267.583 6.88196 267.683 6.89332C268.667 6.97478 269.137 7.14495 269.618 7.3536C269.942 7.46026 270.36 7.55498 270.813 7.62462C271.682 7.74563 272.534 7.90108 273.365 8.03528C273.62 8.07999 273.884 8.1168 274.148 8.14418C275.017 8.23124 275.892 8.35297 276.728 8.50319C277.001 8.54136 277.262 8.59188 277.491 8.65053C277.72 8.70918 277.909 8.77423 278.043 8.84028C277.836 8.91264 277.725 9.00399 277.715 9.10879C277.679 9.17767 278.289 9.31807 278.578 9.41984C278.866 9.5216 278.3 9.47365 278.108 9.48389C277.32 9.50358 277.174 9.54483 277.646 9.7707C277.804 9.84172 277.908 9.91279 277.953 9.97947C277.999 10.0462 277.983 10.1071 277.908 10.1584C277.796 10.3707 277.455 10.5451 277.221 10.7528C277.585 10.8896 278.192 11.0357 278.258 11.2051C278.29 11.2427 278.357 11.2825 278.455 11.3217C278.553 11.3609 278.679 11.3984 278.823 11.4316C279.205 11.5033 279.552 11.589 279.837 11.6822C280.123 11.7753 280.339 11.8733 280.469 11.9687C280.512 12.0081 280.615 12.05 280.757 12.0858C280.9 12.1217 281.072 12.1489 281.238 12.162C281.437 12.1781 281.615 12.176 281.736 12.1561C281.857 12.1361 281.91 12.0999 281.886 12.055C281.891 11.9705 281.865 11.8824 281.807 11.7914C281.841 11.7283 281.874 11.6651 281.742 11.5606C282.336 11.5987 282.96 11.6752 283.546 11.7817C284.131 11.8882 284.656 12.0206 285.064 12.1645C285.514 12.3135 285.93 12.4698 286.429 12.644C286.326 12.8392 286.326 12.8392 287.389 13.1842L293.025 13.3524L294.18 13.581C295.257 13.7802 295.513 13.7665 296.19 13.6635L296.645 13.5667C297.602 13.6998 298.703 13.8531 299.301 13.6037C299.496 13.7663 299.623 13.8209 299.578 13.8455C299.293 14.0855 298.797 14.289 298.109 14.4482C297.934 14.4854 297.811 14.5422 297.607 14.5754C296.948 14.7627 296.796 15.0522 297.18 15.3846C297.37 15.5317 297.647 15.6824 298.002 15.8317C297.483 16.0389 296.796 16.2106 295.959 16.3422C295.249 16.444 294.664 16.5803 294.221 16.7472C293.823 16.9155 293.228 17.042 292.469 17.1194C292.084 17.1524 291.803 17.2173 291.654 17.3079C291.61 17.553 291.711 17.8155 291.957 18.0894C292.004 18.1728 292.135 18.2628 292.342 18.3525C292.548 18.4421 292.824 18.5289 293.147 18.6061C293.147 18.6061 293.303 18.6648 293.378 18.6998C293.44 18.9967 293.207 19.2583 292.693 19.4671C292.609 19.5263 292.437 19.5691 292.195 19.5908C291.953 19.6125 291.651 19.6124 291.321 19.5904C290.624 19.555 289.973 19.5506 289.299 19.5308C288.573 19.5027 287.933 19.5248 287.447 19.5949C286.961 19.6649 286.647 19.7803 286.538 19.9289C286.531 19.971 286.509 20.0113 286.474 20.0494C286.454 20.0691 286.443 20.0903 286.441 20.1126L287.989 20.5991L286.238 20.7928C286.135 20.9879 286.975 21.1049 287.397 21.2498L287.136 21.3306C286.801 21.3764 286.349 21.2889 285.941 21.2381L285.535 21.1817L285.486 21.2735C285.234 21.3985 284.312 21.258 283.953 21.3496C283.593 21.4413 283.85 21.5448 284.388 21.6444C284.763 21.7184 285.165 21.7774 285.564 21.817C285.964 21.8566 286.35 21.8757 286.695 21.8729C286.9 21.8631 287.071 21.8407 287.196 21.8072C287.923 21.6641 288.726 21.5412 289.599 21.4392C290.269 21.3477 291.107 21.3087 292.055 21.3251C292.333 21.3182 292.669 21.3399 293.003 21.3864C293.337 21.4328 293.648 21.5011 293.881 21.5792V21.5792L294.372 21.5921C294.372 21.5921 294.641 21.6726 294.603 21.6858C294.416 21.9243 294.633 22.216 295.222 22.5174V22.5174L294.71 22.5447C293.978 22.5168 294.442 22.6985 294.333 22.788C293.813 22.771 293.137 22.6955 292.89 22.809L292.521 22.8008L292.666 22.821L292.842 22.7838L293.53 22.9535C293.204 22.982 292.967 23.0169 292.679 23.0323C292.52 23.0456 292.393 23.0692 292.307 23.1016C292.22 23.134 292.175 23.1746 292.175 23.2209C292.176 23.2921 292.09 23.352 291.926 23.3949C291.762 23.4379 291.525 23.4624 291.237 23.4661C290.894 23.4676 290.698 23.545 290.496 23.5725L291.37 24.0391C291.37 24.0391 290.936 23.9786 291.172 24.0608L291.203 24.0034L291.732 24.1203C292.114 24.2227 292.38 24.2475 292.606 24.1741C292.831 24.1007 292.78 24.1983 292.888 24.1702C292.849 24.2449 292.603 24.297 292.393 24.3416C292.15 24.3767 291.876 24.4026 291.575 24.4187C292.117 24.7468 292.143 24.7566 291.351 24.8434C290.558 24.9303 290.832 25.0608 290.168 25.0794C289.505 25.098 290.259 25.32 290.703 25.3632C291.032 25.3917 291.368 25.436 291.687 25.4932C292.006 25.5503 292.3 25.619 292.551 25.6943L292.418 25.9468C292.222 25.9259 292.027 25.8987 291.838 25.8662C291.195 25.7275 290.611 25.5969 290.04 25.6775L290.312 25.8694L288.317 25.7581C288.368 25.902 288.673 26.0658 289.165 26.215V26.215C289.091 26.297 289.045 26.3833 289.029 26.4733C288.995 26.5364 288.798 26.4967 288.67 26.5035C288.214 26.5141 287.839 26.5569 287.579 26.6281C287.319 26.6993 287.181 26.7969 287.179 26.9121C287.128 27.0096 287.83 27.2121 288.269 27.2054C289.365 27.2249 290.551 27.3 291.762 27.4266C292.5 27.443 292.604 27.1864 293.818 27.3616C293.842 27.4801 293.687 27.576 293.375 27.6349C293.063 27.6937 292.612 27.7124 292.09 27.6879C292.387 27.951 294.031 28.0196 294.104 28.2947C293.695 28.2752 293.257 28.2295 292.834 28.162C292.411 28.0946 292.018 28.0077 291.693 27.9099C291.623 27.8858 291.535 27.8636 291.437 27.8454C291.34 27.8271 291.235 27.8133 291.134 27.8054C291.033 27.7974 290.938 27.7955 290.858 27.7999C290.778 27.8042 290.716 27.8146 290.677 27.8302C290.905 27.9296 291.156 28.0445 291.441 28.1521C291.727 28.2596 291.795 28.3061 292.001 28.3286C293.538 28.5424 294.268 28.9274 295.597 29.1801C295.945 29.2285 295.988 29.3824 295.686 29.365C295.399 29.3476 295.139 29.3499 294.935 29.3716C294.731 29.3933 294.592 29.4335 294.532 29.4879C294.309 29.5512 294.032 29.6017 293.707 29.6379C295.07 30.033 296.695 30.3821 298.429 30.6524C298.758 30.7059 299.101 30.7384 299.407 30.7454C300.376 30.7458 301.403 30.7771 302.469 30.8388C302.847 30.8556 303.197 30.8541 303.498 30.8342C304.488 30.787 305.273 30.8902 305.991 31.1811L307.179 31.6421C307.14 31.7167 306.941 31.7999 306.787 31.914L307.715 32.1602L314.797 31.5932L316.218 32.1422L318.257 32.1117C318.413 32.1276 318.57 32.1494 318.721 32.1762C319.133 32.3384 319.455 32.4941 319.903 32.6488C320.35 32.8034 321.149 32.8222 321.706 33.0045C322.263 33.1868 322.821 33.1905 323.511 33.2988C323.576 33.4399 323.509 33.5669 323.314 33.6719C323.251 33.7924 322.9 33.8668 322.84 33.9816C322.846 34.0977 322.716 34.1962 322.461 34.2682C322.206 34.3403 321.833 34.3836 321.378 34.3942C320.102 34.6413 318.563 34.8171 316.808 34.9166C316.654 34.9238 316.526 34.9405 316.433 34.9657C316.339 34.9908 316.282 35.0238 316.265 35.0627C316.267 35.1753 316.15 35.2726 315.922 35.3475C315.694 35.4224 315.361 35.4729 314.947 35.4955C314.837 35.5 314.754 35.5142 314.708 35.5361C314.551 35.5503 314.437 35.5775 314.376 35.6149C314.316 35.6524 314.311 35.6989 314.362 35.7501C314.413 35.8012 314.519 35.8551 314.669 35.9067C314.819 35.9583 315.008 36.0057 315.218 36.0445C315.523 36.1069 315.834 36.1667 316.15 36.2235C316.132 36.258 315.818 36.2635 315.864 36.2946C315.988 36.3936 316.017 36.4864 315.948 36.5655C315.879 36.6447 315.715 36.7081 315.468 36.7508L317.16 37.5531C318.187 37.6642 319.195 37.8527 319.992 38.0827C319.993 38.1204 319.947 38.152 319.859 38.1743C319.771 38.1966 319.643 38.2089 319.489 38.2099C319.076 38.2264 318.686 38.2583 318.241 38.2764C317.969 38.29 317.742 38.3198 317.575 38.3642C317.407 38.4086 317.302 38.4666 317.265 38.5349L318.258 38.8333C317.94 38.9061 317.704 38.941 317.493 38.9856C317.613 39.0794 317.818 39.1765 318.092 39.2692C318.367 39.3619 318.704 39.4479 319.078 39.5204C319.178 39.5353 319.281 39.5463 319.379 39.5525C319.477 39.5588 319.569 39.5603 319.65 39.5569C320.42 39.4545 321.32 39.6352 322.194 39.8062C323.069 39.9771 323.543 40.0802 324.189 40.2131L325.424 40.231C325.737 40.2939 326.015 40.3679 326.238 40.4471C326.461 40.5263 326.622 40.6084 326.708 40.6869C326.641 40.8132 326.056 40.744 325.707 40.757C324.878 40.8356 323.789 40.8188 322.62 40.7095C322.33 40.6691 322.033 40.7017 321.751 40.7056C321.143 40.7213 320.558 40.7468 320 40.7822C319.632 40.815 319.288 40.8557 318.971 40.9039C318.886 41.0646 320.221 41.1888 319.463 41.2682C319.724 41.3045 319.822 41.355 319.956 41.3367C320.815 41.4411 321.662 41.4927 322.398 41.4855C323.81 41.4634 325.413 41.5366 327.076 41.6992C328.872 41.8677 330.594 41.9384 332.101 41.9056C332.675 41.9037 333.317 41.9382 333.977 42.0065C334.757 42.1011 335.531 42.1606 336.25 42.181C336.487 42.1818 336.753 42.1979 337.023 42.228C337.294 42.2582 337.562 42.3016 337.807 42.3546V42.3546C337.786 42.3948 337.553 42.424 337.605 42.4435C338.348 42.7442 338.65 43.0572 339.795 43.3644C340.577 43.4733 341.476 43.5983 341.987 43.4539C342.499 43.3095 342.316 43.1854 341.297 42.8157C341.518 42.8104 341.785 42.8277 342.049 42.8645C342.314 42.9014 342.561 42.9555 342.747 43.0174L343.627 43.294L344.421 43.5585C344.352 43.6905 344.297 43.7938 344.24 43.9029C344.149 44.0187 344.249 44.1597 344.525 44.306C344.692 44.386 344.837 44.4659 344.959 44.5451C345.455 44.8619 345.599 45.1614 345.374 45.4099C344.943 45.7672 344.343 46.096 343.58 46.3924C342.774 46.6808 342.334 47.0445 341.67 47.3588C341.332 47.5019 340.921 47.6302 340.441 47.7423C339.532 47.9915 338.536 48.2287 337.623 48.4837C336.711 48.7387 335.681 48.9219 334.668 49.1321C333.159 49.3815 331.529 49.5969 329.785 49.7771C328.706 49.935 327.598 50.0889 326.6 50.2704C325.421 50.4749 324.037 50.6218 322.48 50.7074C321.106 50.8099 319.878 50.9614 318.82 51.1591C318.709 51.1805 318.621 51.2077 318.559 51.2399C318.369 51.4415 317.835 51.5836 317.039 51.6444C317.088 51.7034 317.149 51.7635 317.224 51.8242C317.335 51.8966 317.358 51.9644 317.29 52.0187C317.223 52.073 317.068 52.1114 316.846 52.1289C316.209 52.1788 315.68 52.2636 315.282 52.3795C315.136 52.4086 315.046 52.451 315.018 52.5029C314.991 52.5549 315.027 52.615 315.125 52.678C315.211 52.7428 315.218 52.8025 315.143 52.8492C315.069 52.8959 314.917 52.9276 314.707 52.9401C314.168 53.0015 313.591 53.0509 312.98 53.0879C311.679 53.1697 310.166 53.1687 308.532 53.0851C308.358 53.0609 308.183 53.0981 307.98 53.0699C306.825 52.9762 305.752 52.9616 304.891 53.0281C303.882 53.054 302.826 53.0488 301.762 53.0609C300.225 53.0528 298.806 53.1021 297.547 53.2074C296.107 53.1056 295.298 53.2826 294.083 53.286C292.961 53.3042 291.898 53.3478 290.903 53.4164C289.299 53.5074 287.701 53.587 286.121 53.6935C284.638 53.7443 283.272 53.8414 282.048 53.9831C281.578 54.0471 280.729 53.9474 280.409 54.0815C280.089 54.2157 279.444 54.1999 278.923 54.2444L277.278 54.3543C276.995 54.3805 276.684 54.3971 276.35 54.4038C274.821 54.4128 273.762 54.5919 272.342 54.6285L272.197 54.6084C269.677 54.8747 266.793 55.0208 263.63 55.0425C261.782 55.1243 259.762 55.1204 257.801 55.1802C257.334 55.2999 256.229 55.1524 255.643 55.2618C255.056 55.3711 254.098 55.2994 253.342 55.3174C252.586 55.3354 251.846 55.3804 251.038 55.3788C250.337 55.3793 249.744 55.4281 249.314 55.5209C248.334 55.6741 247.139 55.7642 245.783 55.7871C243.988 55.827 242.291 55.9174 240.466 55.8975C240.492 56.0092 240.38 56.1042 240.142 56.1728C239.903 56.2414 239.547 56.2811 239.109 56.2878C237.158 56.3304 235.388 56.4414 233.41 56.4743L232.881 56.4746L226.967 56.5387C225.374 56.5511 223.838 56.5715 222.213 56.5856C221.604 56.5009 221.59 56.6467 221.169 56.6189C221.051 56.5471 220.912 56.5155 220.705 56.5544L220.66 56.6405L213.91 56.7547C211.267 56.8382 208.488 56.8633 205.594 56.8296C204.908 56.8381 204.267 56.8666 203.683 56.9148C203.141 56.9323 202.576 56.9401 201.99 56.938C201.199 56.9163 200.426 56.9054 199.674 56.9052C197.697 56.9381 195.621 56.9204 193.456 56.8963C191.291 56.8722 189.651 56.915 187.723 56.9117C186.418 56.9087 185.119 56.8943 183.768 56.8603C183.123 56.8445 182.328 56.7585 181.66 56.7272C180.992 56.6958 180.774 56.6963 180.686 56.7456C180.395 56.8838 179.664 56.7944 179.08 56.7809C177.941 56.758 177.78 56.7108 177.47 56.3535L178.868 56.24C179.21 56.2034 179.641 56.1969 180.119 56.2213C180.596 56.2457 181.105 56.3001 181.595 56.3792C181.788 56.4131 181.989 56.4399 182.188 56.4581C182.387 56.4762 182.578 56.4853 182.752 56.4849C184.163 56.4655 185.553 56.4249 186.908 56.3917L187.107 56.37L187.119 56.0514C186.94 56.0201 186.754 55.9942 186.568 55.9747L179.77 55.768C178.21 55.7173 176.591 55.6027 175.06 55.556C173.528 55.5093 172.703 55.4807 171.516 55.4325C171.014 55.405 170.503 55.3688 169.986 55.3243C170.016 55.2936 170.033 55.261 170.037 55.2268C170.065 55.1751 170.101 55.1062 169.881 55.051C169.641 54.973 169.321 54.9064 168.984 54.8645C168.667 54.8368 168.36 54.8212 168.075 54.8181C166.696 54.7914 165.121 54.6231 163.686 54.3491L163.185 54.532C161.031 54.4293 158.844 54.3282 156.593 54.2306C156.142 54.204 155.669 54.1529 155.209 54.0812C154.717 54.0127 154.263 53.8695 153.744 53.7911C153.232 53.7347 152.723 53.6908 152.227 53.66C152.361 53.613 152.538 53.5753 152.752 53.5484C152.963 53.5389 153.117 53.5095 153.191 53.4644C153.265 53.4193 153.256 53.361 153.165 53.2977C153.004 53.1891 152.934 53.0869 153.283 53.0738C153.605 53.0491 153.836 52.9955 153.948 52.9193C154.06 52.8432 154.048 52.7477 153.914 52.6441C153.855 52.5836 153.814 52.5243 153.79 52.4667V52.4667L153.645 52.4465C153.167 52.2321 152.212 52.1547 151.527 51.9793C151.203 51.9284 150.868 51.8991 150.575 51.8961C149.817 51.8584 149.079 51.8419 148.295 51.7945C147.921 51.7726 147.529 51.7328 147.143 51.6773C146.593 51.6007 146.535 51.5926 146.215 51.314C146.711 51.3189 147.105 51.2772 147.329 51.1962C147.553 51.1151 147.594 50.9996 147.445 50.8691C147.035 50.5842 146.603 50.2837 144.749 50.0812C145.354 50.0712 145.935 50.0514 146.492 50.0218C146.654 50.0155 146.775 49.9945 146.839 49.9618C146.904 49.9291 146.908 49.8862 146.852 49.8389C146.796 49.7915 146.681 49.742 146.525 49.6968C146.368 49.6517 146.176 49.6132 145.975 49.5864C144.997 49.4252 143.976 49.3173 143.028 49.2749C142.229 49.2561 141.508 49.2666 140.575 49.2661L139.473 49.1128C139.491 49.0784 139.329 49.0313 139.371 49.0123C139.65 48.8357 139.959 48.663 140.277 48.4731C139.769 48.3706 139.329 48.2468 139.008 48.116C138.686 47.9852 138.496 47.8525 138.458 47.7333C138.431 47.6974 138.438 47.6646 138.479 47.6373C138.521 47.6101 138.595 47.589 138.697 47.5756C138.987 47.5525 139.211 47.5085 139.351 47.4468C139.492 47.3852 139.545 47.3076 139.507 47.22L138.65 46.8975C136.071 46.6674 133.539 46.503 131.099 46.4074L128.897 46.335C128.632 46.2488 128.714 46.2109 128.964 46.2088C129.214 46.2066 129.917 46.2305 130.408 46.2434C130.832 46.2603 131.209 46.2492 131.501 46.2111C131.794 46.1731 131.993 46.1093 132.078 46.0261L131.339 45.6583C131.375 45.5894 131.427 45.4918 131.828 45.4984C132.102 45.4904 132.304 45.4557 132.401 45.3999C132.498 45.3442 132.485 45.2705 132.363 45.1909C132.345 45.1333 132.373 45.0809 132.445 45.0359C133.038 45.0322 133.628 45.0343 134.166 45.0167C134.417 45.0109 134.629 44.9896 134.787 44.9542C134.945 44.9188 135.046 44.8702 135.084 44.8117C135.103 44.7546 135.056 44.6895 134.945 44.6217C134.835 44.5539 134.665 44.4854 134.449 44.4215C133.606 44.3426 132.834 44.3416 132.304 44.4187C132.115 44.4792 131.811 44.5122 131.433 44.5134C131.054 44.5147 130.619 44.4841 130.185 44.4257C129.687 44.3583 129.19 44.3287 128.784 44.3422C128.377 44.3556 128.088 44.4113 127.968 44.4992C127.457 44.465 127.004 44.4389 126.557 44.4014C126.03 44.354 125.532 44.3401 125.116 44.361C124.451 44.3758 123.735 44.3672 122.983 44.3353C120.816 44.2555 118.646 44.1814 116.548 44.1482C115.993 44.1387 115.512 44.1643 114.963 44.1434C114.414 44.1224 113.98 44.179 113.294 44.065C113.163 44.0473 113.031 44.0359 112.909 44.0318C112.787 44.0276 112.678 44.0308 112.591 44.0411C111.385 44.1313 109.971 44.144 108.433 44.0786C106.326 44.0626 104.14 44.0172 102.03 44.007C101.411 44.0158 100.826 44.0395 100.282 44.0778C99.8669 44.101 99.4327 44.1167 98.9811 44.1248C98.635 44.1321 98.304 44.1107 98.3624 44.2358C98.4208 44.361 97.9021 44.2827 97.6032 44.2596C96.5762 44.1989 95.5265 44.1167 94.4659 44.014C93.4208 43.9023 92.3969 43.8374 91.4553 43.823C90.7753 43.8146 90.074 43.8464 89.1997 43.6754C89.233 43.6123 89.2662 43.5491 89.4566 43.4832C88.7435 43.3018 87.93 43.1457 87.0832 43.0279C86.2364 42.9101 85.3808 42.8338 84.587 42.8055L83.4924 42.4622C83.2229 42.4219 82.9478 42.3926 82.6838 42.3759C82.4197 42.3593 82.1723 42.3558 81.9566 42.3656C81.7899 42.3705 81.5867 42.3578 81.3844 42.3296C81.1821 42.3015 80.9941 42.2598 80.8551 42.2123C80.6473 42.1518 80.3934 42.0997 80.1253 42.0624C79.8572 42.0251 79.5867 42.0042 79.3479 42.0025C78.5958 41.9652 77.793 41.879 77.0217 41.7527C76.8215 41.6787 76.6961 41.6023 76.6609 41.5328C76.6257 41.4633 76.6822 41.4038 76.8236 41.3617C77.0514 41.2873 77.1793 41.1925 77.1996 41.0831C77.2199 40.9737 77.1321 40.8519 76.9415 40.7251C76.8439 40.6472 76.8113 40.5735 76.8457 40.5084C76.88 40.4433 76.9806 40.3881 77.1413 40.3463C77.7413 40.1525 77.5808 40.0439 76.5992 39.7225C76.4397 39.6689 76.2475 39.6188 76.0347 39.5754C75.8219 39.532 75.5933 39.4963 75.3632 39.4704C74.8233 39.418 74.2908 39.379 73.7755 39.3542C73.4856 39.3138 73.1883 39.3464 72.8544 39.3307C71.1845 39.2524 70.94 39.1259 70.3992 38.8535L70.0051 38.657C69.2741 38.4978 68.4747 38.3656 67.6643 38.2698C66.854 38.1741 66.053 38.1173 65.319 38.1034C65.0273 38.1024 64.6918 38.0752 64.3642 38.026C63.2979 37.8756 62.218 37.7715 61.1961 37.7207C60.5593 37.692 59.8729 37.618 59.2192 37.5073C58.5656 37.3967 57.9726 37.2542 57.5114 37.097C57.0971 36.9554 56.5551 36.8283 55.9609 36.7334C55.2652 36.6366 55.2008 36.5229 55.5893 36.4352C55.9777 36.3476 56.6284 36.2348 57.2059 36.1427C57.4068 36.1114 57.5314 36.0605 57.5656 35.9956C57.5998 35.9308 57.5423 35.8545 57.3996 35.7754C57.308 35.64 57.2921 35.5115 57.3524 35.393C57.3846 35.3438 57.3624 35.2873 57.2872 35.2275C57.212 35.1676 57.0857 35.1057 56.9167 35.046C56.7477 34.9863 56.54 34.9301 56.3075 34.8813C56.075 34.8324 55.8232 34.792 55.5691 34.7629C54.4966 34.6136 53.4531 34.4684 52.3594 34.3593C51.9011 34.3079 51.4433 34.2442 50.9971 34.1697C50.0838 33.9856 49.1068 33.8329 48.1228 33.7205C47.6557 33.6702 47.1991 33.5823 46.8518 33.4758C45.7561 33.1889 44.7466 32.8873 43.8414 32.5763C43.6232 32.4799 43.3378 32.3858 43.0029 32.3C42.6681 32.2142 42.291 32.1385 41.8955 32.0776C41.5766 32.0332 41.3171 31.9355 41.0713 31.8705C40.8928 31.72 40.8737 31.5807 41.0159 31.4658C41.1581 31.3509 41.457 31.2641 41.8845 31.2136C42.2899 31.1529 42.6692 31.0825 43.0196 31.008C43.442 30.9478 43.9442 30.9117 44.5074 30.9009C45.1745 30.8686 45.6678 30.7762 45.9229 30.6358C44.0968 30.3817 42.3602 30.0168 40.7596 30.1021L39.5434 29.8712C39.5918 29.7794 39.6342 29.6991 39.6736 29.6244C39.9628 29.4886 40.0532 29.3173 39.937 29.1251C39.8411 29.0321 39.8498 28.9475 39.962 28.8798C40.0742 28.8121 40.286 28.7638 40.5759 28.7396C42.2933 28.4919 44.2794 28.3248 45.89 28.0437C46.395 27.9909 46.9861 27.967 47.6386 27.9728C48.2697 27.9559 48.2433 27.829 47.517 27.6725C47.1093 27.5907 46.6937 27.5123 46.2719 27.4376C44.4116 27.4252 43.6538 27.8003 41.531 27.6958L40.547 27.2016C40.281 27.194 40.0227 27.1909 39.774 27.1926L36.2145 27.3934C35.918 27.4035 35.6872 27.4378 35.5484 27.4926C35.4095 27.5473 35.3681 27.6202 35.4289 27.703C35.453 27.8044 35.404 27.8973 35.2836 27.9785C35.206 28.0354 35.2556 28.111 35.4217 28.1887C35.7959 28.364 35.3157 28.3896 35.0125 28.4337C34.935 28.438 34.8456 28.4375 34.7495 28.4323C34.6534 28.4271 34.5526 28.4173 34.4528 28.4034C34.3531 28.3895 34.2564 28.3719 34.1683 28.3514C34.0803 28.331 34.0027 28.3082 33.94 28.2844C33.4057 28.1176 32.9384 27.9417 32.4132 27.7577C32.7861 27.5817 32.3474 27.2927 32.9292 27.1334C32.9943 27.1016 33.0203 27.0628 33.0057 27.0194C32.9911 26.9761 32.9362 26.9291 32.8443 26.8813C32.6074 26.758 32.4946 26.6377 32.5172 26.5327C32.5398 26.4277 32.6971 26.3416 32.9732 26.2831L33.0065 26.22C32.2783 26.0078 32.4713 25.819 32.1853 25.5944L31.4849 25.4476C29.7422 25.0942 29.7392 25.1 28.2389 25.113C27.9365 24.9785 28.3207 24.958 28.6088 24.9427L31.0219 24.7918C32.5996 24.691 34.2232 24.6212 35.9857 24.5831C37.7481 24.5449 39.713 24.4179 41.5347 24.3264C41.6268 24.3193 41.6973 24.3053 41.7402 24.2856C41.7831 24.2658 41.7971 24.2409 41.7813 24.2129C41.7089 24.1826 41.6141 24.1534 41.5039 24.1274C41.3938 24.1014 41.2711 24.0793 41.1448 24.0627C40.5651 23.982 39.9703 23.9301 39.3525 23.8626L38.2009 23.7454L37.8466 23.5914C37.616 23.4977 37.4584 23.3834 37.1517 23.316C36.8989 23.2658 36.6245 23.2277 36.3571 23.2056C36.0896 23.1836 35.8389 23.1784 35.6311 23.1907C35.0549 23.2214 34.5336 23.2659 33.9833 23.3064C33.433 23.3468 33.1297 23.3909 32.6526 23.4107C31.6831 23.4198 30.7462 23.4436 29.8458 23.4822C29.0875 23.5735 28.3861 23.6817 27.746 23.8061C27.3467 23.8552 26.9733 23.9142 26.2915 23.8501C25.968 23.792 25.6891 23.7157 25.504 23.6346C25.3189 23.5536 25.2397 23.4732 25.2804 23.4075C25.317 23.3561 25.4206 23.3153 25.5814 23.2892C25.7421 23.2631 25.9548 23.2524 26.1993 23.2581C26.8836 23.2487 27.5165 23.2168 28.0851 23.1632C28.8765 23.0661 29.8399 23.0243 30.919 23.0401C31.285 23.0541 31.5303 23.002 31.8505 22.9849C32.1706 22.9679 32.4418 22.9255 32.7987 22.9567C33.9075 23.0371 34.4392 22.9139 35.1037 22.8339C35.3286 22.7984 35.468 22.741 35.5064 22.6681C35.5449 22.5952 35.4809 22.5096 35.3216 22.4206C35.015 22.2435 34.6398 22.0653 34.202 21.889C33.9767 21.8023 33.688 21.72 33.3586 21.6485C33.0293 21.577 32.6681 21.5183 32.3036 21.477C32.0854 21.3685 31.969 21.2618 31.9649 21.1666C31.9608 21.0713 32.0692 20.9906 32.2802 20.9316C32.8179 20.7969 33.2946 20.66 34.4994 20.7352C35.0659 20.7639 35.599 20.7695 36.0775 20.7515C37.139 20.7269 38.3634 20.7807 39.6354 20.9078C39.9645 20.9403 40.288 20.9626 40.5963 20.9737C42.7953 21.0518 44.8904 21.0908 46.9916 21.1183C48.1047 21.1315 49.2269 21.1275 50.3889 21.166C53.1139 21.2495 55.5945 21.2065 58.2248 21.2337C59.6024 21.2477 60.8354 21.1915 61.8592 21.068C62.0586 21.0266 62.2298 20.9782 62.3709 20.9235C61.6924 20.78 60.9472 20.6664 60.2066 20.5936C59.466 20.5207 58.7548 20.4911 58.1412 20.5074C57.8039 20.5476 57.3679 20.555 56.8818 20.5287C56.3957 20.5023 55.8788 20.4434 55.3885 20.3585V20.3585L56.8139 20.3104C57.7592 20.2879 58.7274 20.281 59.6467 20.2487C61.1072 20.1932 62.4607 20.1043 63.9731 20.0684C65.1942 20.0353 66.2869 19.9508 67.2168 19.8174C67.8887 19.7202 68.656 19.6512 69.5032 19.612C70.1054 19.591 70.1054 19.591 70.4904 19.392C70.1849 19.2633 69.79 19.2453 69.4179 19.2428C67.1874 19.1618 65.0647 19.1476 63.0931 19.2005C62.0983 19.2051 61.2158 19.2597 60.4879 19.3616C60.3097 19.4046 59.8537 19.3842 59.4877 19.3703C58.3404 19.349 57.2438 19.3552 56.2111 19.3887C54.7834 19.4445 53.1933 19.4313 51.5025 19.3495C51.182 19.2494 51.551 19.2576 51.5691 19.2232C52.8786 19.159 54.1622 19.085 55.4977 19.0306C55.8627 19.0112 56.253 19.0016 56.664 19.0019C58.1984 19.0357 59.4771 18.9422 60.3208 18.7346C60.3632 18.6542 60.9183 18.6637 61.1635 18.6116C61.2842 18.5665 61.3646 18.5134 61.4023 18.4538C61.0449 18.3055 60.6409 18.3047 60.3298 18.3046C59.4272 18.3211 58.5589 18.3525 57.729 18.3985C56.9576 18.4424 56.1037 18.4541 55.1904 18.4334C54.5164 18.4135 53.9402 18.4442 53.2601 18.4358C52.8912 18.4182 52.5093 18.3899 52.1223 18.3514C52.5533 18.2481 53.139 18.1845 53.8385 18.1652C54.3689 18.1034 55.032 18.0848 55.1168 17.9241C54.8663 17.8092 54.5872 17.8073 54.3632 17.8192C53.8967 17.8188 53.4462 17.8261 53.0139 17.8409C52.0972 17.8736 51.1048 17.8741 50.0574 17.8423C49.5058 17.8304 48.9825 17.834 48.4961 17.853C47.3938 17.8782 46.3373 17.9345 45.3281 17.9604C43.2606 17.9869 41.3749 18.0818 39.3884 18.1319C38.9463 18.1443 38.5499 18.1877 37.9672 18.1128C37.3845 18.0378 37.3585 18.0281 37.2897 17.9815C37.1267 17.9039 37.0773 17.8286 37.1517 17.7713C37.2673 17.7178 37.4925 17.688 37.7871 17.6873C39.563 17.6021 41.2474 17.4826 42.8297 17.3293C43.5261 17.2986 44.1362 17.236 44.6388 17.1437C45.0375 17.0801 45.5103 17.038 46.0426 17.0187C46.8168 16.9727 47.6238 16.939 48.4605 16.9177C48.8498 16.9063 49.1808 16.8722 49.4341 16.8175C49.6873 16.7629 49.8577 16.6886 49.9352 16.5993L48.9095 16.3025C48.7483 16.2887 48.5884 16.2767 48.4305 16.2667L39.9172 16.4804L39.074 16.4863C38.15 16.4686 37.9241 16.4249 37.0476 16.0811C39.048 16.0002 40.6205 15.7645 41.6085 15.3974C41.3711 15.3579 41.1277 15.324 40.8839 15.2966C39.2853 15.2097 37.7741 15.1867 36.4085 15.2282C35.5973 15.2324 34.7633 15.2211 33.9262 15.2155C34.171 15.0462 35.1089 15.0967 35.7202 15.0585C37.1807 14.9988 38.4723 14.8755 39.5535 14.6925C39.9263 14.6212 40.3927 14.5755 40.9313 14.5577C41.4704 14.5516 41.9206 14.5084 42.2429 14.4319C42.5653 14.3554 42.7499 14.248 42.7806 14.1189C42.8314 14.002 42.9409 13.8934 43.1073 13.7947C42.8128 13.6546 42.3453 13.5205 41.7924 13.4175C41.2396 13.3145 40.6394 13.2496 40.1044 13.2351C38.9625 13.1775 37.778 13.083 36.5812 12.9543C35.985 12.8894 35.4004 12.8521 34.8654 12.8449C34.3936 12.8394 33.8573 12.7925 33.3383 12.7114C32.8193 12.6302 32.3462 12.5194 31.9911 12.3956C31.5117 12.2427 31.0643 12.088 30.617 11.9333C30.1696 11.7787 29.6505 11.5832 29.1283 11.3935C28.6679 11.3638 28.2195 11.3447 27.7894 11.3365C27.4547 11.3435 27.0641 11.3228 26.6638 11.2769C26.2635 11.231 25.8701 11.1619 25.5302 11.0776V11.0776C25.7296 10.9944 25.955 10.9211 26.1925 10.8247C25.8665 10.6975 25.6302 10.5678 25.4978 10.4435C25.3655 10.3192 25.3399 10.2028 25.4228 10.1015C25.4712 10.0097 25.1168 9.85567 24.9944 9.7339C24.8368 9.62892 24.8072 9.53095 24.9094 9.45284C25.0117 9.37472 25.2411 9.32011 25.5676 9.29616C25.9725 9.25195 26.302 9.18538 26.5426 9.09917C26.6222 9.07679 26.6628 9.04614 26.6605 9.01002C26.6582 8.97391 26.6133 8.93348 26.5297 8.89244C26.4461 8.85139 26.3266 8.81103 26.1821 8.77506C26.0376 8.73909 25.8727 8.70865 25.7025 8.68653C25.1811 8.6238 24.6633 8.58315 24.1787 8.5669C23.3441 8.537 22.5451 8.51822 21.7816 8.51055C20.9373 8.49902 19.9981 8.42782 19.0592 8.30419C18.2186 8.18721 17.4649 8.08233 17.0539 7.85879C16.6429 7.63525 15.9858 7.64238 15.4804 7.47965C15.7643 7.33295 16.2688 7.23104 16.9431 7.18416C17.3843 7.16743 17.7526 7.12353 18.0244 7.05525C18.2962 6.98698 18.4654 6.89584 18.5212 6.7877L16.9871 6.33394C15.7619 6.12031 15.084 6.28473 13.7602 6.19908L15.1242 6.03157C15.1516 6.01502 15.1619 5.99558 15.1545 5.97418C15.022 5.63539 14.8113 5.56294 13.417 5.37506L12.6344 5.26616L11.3958 5.13691C11.1974 5.06748 11.0602 4.99508 10.9979 4.92694C10.9355 4.8588 10.9503 4.79732 11.0406 4.74864C11.222 4.66678 11.2772 4.56216 11.201 4.44444C11.0809 4.36646 11.071 4.29457 11.173 4.24125C11.275 4.18792 11.4825 4.15652 11.7595 4.15252C11.9805 4.14631 11.997 4.05619 12.1172 4.00515C12.2367 3.93481 12.4412 3.88084 12.7168 3.8469C12.9924 3.81297 13.3326 3.79985 13.7143 3.80848C14.8397 3.81552 15.897 3.78912 16.8672 3.72973L16.6933 3.70553C17.7046 3.75766 18.6501 3.76398 19.4836 3.72419C20.319 3.6741 21.3911 3.70623 22.2783 3.67569C23.0007 3.6827 23.5506 3.61337 23.8115 3.48243C24.0641 3.35741 24.9821 3.38659 25.6851 3.41049C26.1015 3.42594 26.504 3.4325 26.8882 3.43006C27.4039 3.40176 28.0488 3.42844 28.7152 3.50564C28.9151 3.52937 29.1121 3.54192 29.2871 3.5421C30.9812 3.57455 32.6723 3.61274 34.3434 3.62967C34.7292 3.61992 35.1815 3.64226 35.6473 3.69407C35.8431 3.71656 36.0337 3.72588 36.1933 3.72077C38.834 3.66931 41.8138 3.80059 44.4026 3.72959C44.7163 3.71282 45.0637 3.70934 45.4348 3.71922C46.2688 3.76093 46.993 3.73409 47.4975 3.64278C47.7697 3.59421 48.1187 3.56745 48.5221 3.5642C48.9256 3.56095 49.3748 3.58128 49.8409 3.6239C50.6167 3.68033 51.3336 3.68644 51.9161 3.64161C53.0519 3.60018 54.2463 3.58315 55.49 3.59064C55.871 3.59789 56.206 3.58179 56.4689 3.5436C56.7319 3.5054 56.9157 3.44613 57.0062 3.37039C56.7007 3.24163 56.3668 3.22596 56.0497 3.23728C54.8206 3.20794 53.5946 3.17286 52.3885 3.15903C51.3089 3.11954 50.2731 3.10747 49.2962 3.12299C48.8111 3.14051 48.2058 3.10057 47.6124 3.0119C46.8852 2.89959 46.1361 2.8438 45.5168 2.8558C45.0576 2.85878 44.5729 2.84911 44.0697 2.82692C43.7476 2.80017 43.4175 2.75423 43.1132 2.69382C42.9924 2.66758 42.861 2.64551 42.7273 2.62904C42.5936 2.61257 42.4607 2.60206 42.3368 2.59816C42.213 2.59426 42.101 2.59706 42.008 2.60639C41.9151 2.61573 41.8434 2.6314 41.7972 2.65238C41.3313 2.82781 40.2895 2.73829 39.3975 2.71888C38.0607 2.42195 37.0658 2.5977 35.8163 2.42999C35.7175 2.41887 35.6202 2.41213 35.5302 2.41021C35.4403 2.40829 35.3597 2.41122 35.2933 2.4188C32.8754 2.51975 30.0574 2.43562 27.5188 2.47048C27.2389 2.47558 26.9139 2.45811 26.5809 2.42006C24.4047 2.16819 22.3123 2.09669 20.7129 2.21953C20.5183 2.23059 20.2969 2.23106 20.0588 2.22092C18.9653 2.12082 17.9195 2.08091 17.0089 2.10452C15.5817 2.0969 14.2095 2.10308 12.7593 2.07994C11.7597 2.04702 10.8828 2.08219 10.2164 2.18196C10.1952 2.22214 9.75133 2.17884 9.4113 2.17465C9.21574 2.07351 9.04619 1.98215 8.84458 1.89248C8.66436 1.78155 8.39437 1.6693 8.05303 1.56333C7.71168 1.45737 7.30698 1.36018 6.86617 1.27832C6.11255 1.17344 6.03718 1.02126 6.56452 0.965266C7.92376 0.780023 9.63292 0.704206 11.5664 0.743376C13.1826 0.746507 14.8279 0.753679 16.4671 0.772322C17.4231 0.788316 18.431 0.823843 19.3612 0.830064C19.675 0.843732 19.9974 0.863874 20.325 0.890274C20.727 0.928551 21.1173 0.949407 21.475 0.951722C22.6232 0.919486 23.9047 0.947569 25.2582 1.03463C25.754 1.05361 26.23 1.06001 26.6793 1.05373C27.7422 1.0301 28.8944 1.04749 30.1056 1.10544C30.8584 1.13812 31.5882 1.15521 32.2877 1.15652C32.5348 1.16009 32.7359 1.13264 32.9739 1.15343C35.0682 1.37095 36.5511 1.21383 38.436 1.29748C39.3521 1.3208 40.2274 1.32087 41.0494 1.29768C42.6537 1.2988 44.3028 1.32265 45.9899 1.36912C48.2209 1.44548 50.2883 1.41899 52.4185 1.45051C52.839 1.45714 53.2451 1.45601 53.6337 1.44713C55.5242 1.38845 57.5775 1.40089 59.7435 1.48415C60.2354 1.49618 60.6771 1.48147 61.0411 1.44096C61.4051 1.40045 61.6835 1.335 61.8589 1.24871C61.9331 1.18949 61.8851 1.11256 61.7239 1.03278C61.4566 0.93089 61.1547 0.831059 60.8232 0.734931L48.7658 0.412368C48.2593 0.395523 47.7655 0.386456 47.2867 0.385202C45.8785 0.382398 44.427 0.357304 42.9394 0.310046C41.4693 0.265656 40.065 0.273536 38.6409 0.260171C38.2214 0.255694 37.7908 0.245131 37.3509 0.228511C34.3773 0.0969765 31.4777 0.0166366 28.6726 -0.0119314C27.4924 -0.0159851 26.2175 -0.0763519 25.0144 -0.0959182C23.8113 -0.115485 22.1661 -0.122649 20.7389 -0.130274L16.3202 -0.129103C15.4511 -0.132996 14.6049 -0.121381 13.7617 -0.115501C12.7385 -0.535125 12.3859 -0.633482 11.0206 -0.817326C10.5535 -0.885141 10.0784 -0.925611 9.65094 -0.933997C8.29557 -0.900824 6.59494 -1.03891 5.30965 -1.02063C4.53409 -1.02965 3.87599 -0.983032 3.40273 -0.885553C2.9919 -0.809051 2.52211 -0.748516 2.00062 -0.704864C0.572078 -1.06384 0.446181 -1.29699 1.52077 -1.38772C1.81192 -1.40881 2.21295 -1.40229 2.42319 -1.44696C2.54382 -1.47416 2.70862 -1.48972 2.90444 -1.49241C3.10027 -1.4951 3.32171 -1.48485 3.5514 -1.46246C4.2763 -1.40371 4.95575 -1.38989 5.52156 -1.4224C6.05406 -1.46541 6.70677 -1.4637 7.41679 -1.4174C7.93854 -1.3448 8.39712 -1.44732 8.84833 -1.47694C9.29954 -1.50656 9.66982 -1.55977 10.3746 -1.48018C10.5036 -1.46433 10.6317 -1.45482 10.7491 -1.45237C10.8665 -1.44992 10.9699 -1.4546 11.0516 -1.46605C11.8085 -1.51731 12.7118 -1.51192 13.688 -1.45033C15.1852 -1.38973 16.59 -1.38745 17.8536 -1.44359C18.61 -1.49271 19.2549 -1.57982 19.7631 -1.70152C19.9016 -1.74223 20.1073 -1.76664 20.3605 -1.77241C21.6319 -1.74702 23.0123 -1.65145 24.4129 -1.49187C24.9405 -1.42793 25.4674 -1.37736 25.9824 -1.34122C27.0409 -1.26095 28.0646 -1.21597 29.0232 -1.20761C30.4163 -1.20628 31.8667 -1.1754 33.3615 -1.11523C34.284 -1.08173 35.173 -1.06937 36.0177 -1.07827C36.886 -1.08247 37.8131 -1.05692 38.7779 -1.00221C39.7373 -0.957623 40.5829 -0.983312 41.2126 -1.07616C41.4199 -1.1262 41.5869 -1.18561 41.7105 -1.2533C40.3056 -1.47356 38.8527 -1.58549 37.6443 -1.56657C37.1853 -1.58116 36.8041 -1.56643 36.3204 -1.65222L36.3053 -1.62353C36.2091 -1.60491 36.0639 -1.60051 35.8973 -1.61119C35.7308 -1.62186 35.5547 -1.64685 35.4025 -1.6814V-1.6814C35.46 -1.79045 35.5145 -1.89376 35.5538 -1.96837C36.4746 -1.95521 37.3686 -1.95628 38.2313 -1.97158C38.9585 -1.99359 39.9458 -1.80076 40.5752 -1.87335C41.803 -1.78258 42.5847 -1.90791 43.6857 -1.87174C44.7867 -1.83558 45.9993 -1.71611 47.1003 -1.67995C48.0611 -1.6601 48.9939 -1.65579 49.8937 -1.66703C50.2043 -1.6828 50.5623 -1.6791 50.9458 -1.65615C51.4849 -1.61298 51.9864 -1.60574 52.3927 -1.63528C52.7989 -1.66482 53.0936 -1.72995 53.2429 -1.82319C53.1023 -1.91052 52.9129 -2.02314 52.6944 -2.13979C53.0963 -2.23565 53.7067 -2.27601 54.4351 -2.25487L55.4644 -2.2595C55.7371 -2.25697 55.9456 -2.28288 56.0467 -2.33188C56.1478 -2.38087 56.1339 -2.4492 56.0077 -2.52273C54.0561 -2.89289 53.9842 -2.93369 52.5519 -2.6956L50.6501 -2.80624L50.6822 -2.80794ZM76.4054 -1.79113L76.2606 -1.8113L76.4054 -1.79113ZM313.406 37.5913L313.373 37.6545L313.409 37.5856L313.728 37.63L313.749 37.5898L313.406 37.5913ZM267.114 9.91913C266.663 9.85025 266.208 9.78693 265.751 9.72955C265.632 9.72065 265.52 9.71864 265.425 9.72369C265.33 9.72874 265.256 9.74069 265.207 9.75854C265.171 9.82741 265.426 9.8752 265.657 9.90747C265.95 9.9509 266.249 9.9785 266.523 9.98742C266.797 9.99635 267.037 9.98627 267.217 9.95823L267.48 9.9331L267.114 9.91913ZM34.9905 26.7056C35.2872 26.7172 35.5686 26.7191 35.8277 26.7112C36.9771 26.6555 38.0776 26.5745 39.256 26.5229C40.7429 26.3918 42.4515 26.3385 44.3176 26.3648C45.0466 26.3776 45.6626 26.3351 46.0935 26.2423C46.3515 26.1924 46.6844 26.1633 47.072 26.1567L52.0055 26.0053C52.3104 25.9739 52.5741 25.9299 52.7903 25.8743C52.3555 25.8138 52.0656 25.7734 51.8917 25.7492C51.5309 25.7424 51.2207 25.7609 50.9923 25.8027C50.747 25.8737 50.3323 25.9017 49.8307 25.8814C49.3243 25.8645 48.8305 25.8554 48.3517 25.8542C47.4475 25.8577 46.5372 25.8728 45.63 25.8821C45.2771 26.0794 44.2353 25.9898 43.3433 25.9704L42.6541 25.9793C40.4014 26.0815 38.2496 26.2223 36.2091 26.4008C35.8147 26.431 35.475 26.4791 35.2003 26.5438C35.0968 26.5942 35.0637 26.6571 35.1034 26.7275L34.9586 26.7073L34.9905 26.7056ZM135.585 45.5715C136.132 45.5849 136.701 45.6125 137.284 45.6539C137.733 45.6961 138.172 45.7217 138.582 45.7298C140.879 45.774 143.274 45.8761 145.732 46.0349C146.054 46.0589 146.363 46.0707 146.647 46.0698L148.66 46.0295C149.294 46.0068 149.306 45.9839 148.845 45.6794C148.461 45.6203 148.074 45.5664 147.685 45.518C147.453 45.4858 147.077 45.4333 146.988 45.4826C146.451 45.6173 145.47 45.5301 144.645 45.5015C142.257 45.428 139.794 45.3193 137.383 45.2302C136.873 45.2085 136.379 45.1975 135.907 45.1973C135.614 45.1928 135.346 45.2014 135.116 45.2228C135.048 45.2249 134.992 45.2313 134.95 45.2415C134.909 45.2516 134.882 45.2653 134.874 45.2815C134.865 45.2978 134.874 45.3164 134.9 45.3359C134.926 45.3555 134.969 45.3756 135.025 45.3949C135.222 45.4627 135.45 45.5277 135.701 45.5876L135.585 45.5715ZM153.079 1.37501L155.431 1.33891C155.713 1.33503 155.953 1.2944 156.254 1.31178C157.865 1.36685 159.357 1.35151 160.665 1.2664C161.111 1.23167 161.632 1.22473 162.201 1.24595C163.941 1.30885 165.583 1.31143 167.081 1.25364C168.05 1.24204 168.957 1.20309 169.787 1.13735C169.851 1.12209 169.891 1.10137 169.904 1.07661C169.917 1.05185 169.903 1.02362 169.863 0.993862C169.853 0.97506 169.824 0.954832 169.78 0.934576C169.735 0.914321 169.676 0.89451 169.605 0.876522C169.535 0.858533 169.455 0.842793 169.372 0.830375C169.289 0.817957 169.204 0.809155 169.123 0.804589C168.073 0.71561 167.077 0.684611 166.215 0.714111C165.416 0.749407 164.555 0.759735 163.647 0.744933C162.778 0.74104 162.189 0.85613 161.115 0.768312C160.661 0.739394 160.26 0.748914 159.98 0.795279C159.418 0.872128 158.633 0.876403 157.765 0.807342C157.246 0.772391 156.75 0.757402 156.295 0.762948C155.193 0.788214 154.139 0.838765 153.118 0.88761C152.796 0.898909 152.451 0.900469 152.089 0.892253L146.974 0.796607C145.745 0.767267 144.519 0.732188 143.313 0.718361C142.327 0.688337 141.409 0.697741 140.592 0.746238C139.72 0.797211 138.77 0.817905 137.759 0.807928C136.189 0.835823 134.627 0.846493 132.918 0.842741C131.828 0.845048 130.712 0.837588 129.573 0.81461C128.996 0.785038 128.507 0.809121 128.199 0.882224C128.012 0.942408 127.571 0.893377 127.205 0.87941C125.253 0.74479 123.422 0.712892 121.841 0.785938C121.639 0.797841 121.417 0.80215 121.18 0.798792C119.657 0.796283 118.079 0.779967 116.617 0.779787C116.232 0.785462 115.869 0.801035 115.534 0.826308C115.57 0.867541 115.673 0.91223 115.82 0.951109C115.967 0.989987 116.149 1.02007 116.326 1.03512C117.709 1.15031 119.045 1.21117 120.276 1.21513C122.326 1.20045 124.474 1.23344 126.696 1.31375C128.42 1.39471 129.993 1.37766 131.296 1.26388C132.315 1.17898 133.64 1.21092 135.044 1.35422C135.645 1.42266 136.228 1.45003 136.714 1.43258C137.181 1.4097 137.718 1.41525 138.292 1.44891C139.502 1.51291 140.666 1.54259 141.761 1.53739C142.831 1.51383 143.83 1.44947 144.929 1.42994C146.028 1.41041 147.703 1.4216 149.058 1.38843C150.413 1.35526 151.754 1.35079 153.079 1.37501ZM55.5981 -1.98214C55.7223 -1.80468 56.1618 -1.69422 56.6347 -1.6469C58.2649 -1.43678 59.8766 -1.34737 61.1992 -1.39366C61.9136 -1.45824 62.866 -1.43339 63.8693 -1.32397C65.0375 -1.21023 66.1293 -1.19137 66.9525 -1.27071C67.1541 -1.28457 67.3086 -1.31388 67.402 -1.35602C67.4201 -1.39045 67.4534 -1.45359 67.4595 -1.46507C67.373 -1.49418 67.2669 -1.52115 67.1495 -1.54391C67.032 -1.56666 66.9063 -1.58459 66.782 -1.59631L61.3822 -1.79945L60.4411 -1.84416C58.7224 -1.96127 57.0846 -2.00793 55.5981 -1.98214V-1.98214ZM66.2196 0.826703C67.0624 1.11649 67.0653 1.11073 67.4971 1.17698C69.5801 1.45214 71.6616 1.60067 73.494 1.60491C73.9013 1.60407 74.247 1.5761 74.5017 1.52335C74.6327 1.5162 74.7162 1.49348 74.7337 1.46015C74.7513 1.42682 74.7016 1.38558 74.5955 1.34542L73.9254 1.14127C72.7083 1.05289 71.5087 0.98266 70.3338 0.931014C68.9658 0.870027 67.7536 0.867673 66.3355 0.842828L66.2196 0.826703ZM135.484 44.2883C136.269 44.6871 136.272 44.6814 137.587 44.7843C138.503 44.8572 139.392 44.9 140.227 44.9114C141.247 44.9239 142.293 44.9463 143.31 44.9646C143.558 44.9773 143.769 44.9668 143.901 44.935C144.032 44.9033 144.076 44.8526 144.023 44.7928C143.89 44.7279 143.681 44.6651 143.431 44.6146C143.18 44.5641 142.904 44.5289 142.645 44.5148L142.09 44.5053C141.416 44.4854 140.716 44.4558 140.065 44.4514C139.642 44.4679 139.153 44.4552 138.635 44.4141C138.117 44.3729 137.584 44.3046 137.079 44.2145L135.484 44.2883ZM70.413 -1.46067C70.6226 -1.3916 70.8598 -1.32544 71.1181 -1.26397C72.1183 -1.09357 73.1768 -0.996793 74.0863 -0.992605C74.5163 -0.982049 74.9096 -1.01974 75.3474 -0.964971C76.1326 -0.891788 76.8936 -0.852805 77.5893 -0.850133C77.5893 -0.850133 77.7843 -0.866113 77.8483 -0.869524L77.9815 -1.12206C77.6522 -1.18056 77.3088 -1.22836 76.967 -1.26324C75.8202 -1.33043 74.6932 -1.37636 73.5693 -1.42804C72.4453 -1.47972 72.0534 -1.50345 71.3184 -1.52565C70.9905 -1.51345 70.6873 -1.49168 70.413 -1.46067ZM45.5771 29.9346L47.0779 30.4515C47.5636 30.4965 48.0173 30.5046 48.37 30.4747C48.7228 30.4448 48.9552 30.3786 49.0319 30.286C49.1555 30.2427 49.1679 30.1786 49.0664 30.107C48.965 30.0355 48.7575 29.9621 48.4877 29.9023C48.2279 29.8313 47.9314 29.7678 47.6165 29.7155C47.3016 29.6631 46.9749 29.6232 46.6569 29.5982L45.5771 29.9346ZM58.0731 27.3611C57.0914 27.2734 56.1526 27.2376 55.3281 27.2563C54.8088 27.3076 54.105 27.2912 53.3611 27.2105C52.0083 27.0497 50.7043 27.0052 49.7241 27.0864C49.7241 27.0864 49.6877 27.1552 49.5216 27.1752C49.3555 27.1952 50.0144 27.2438 50.1593 27.264C51.2222 27.3133 52.2912 27.3512 53.2153 27.3689C53.789 27.3681 54.3958 27.3844 55.0253 27.4175C55.8915 27.4685 56.7129 27.485 57.4575 27.4664C57.4575 27.4664 57.7456 27.451 58.07 27.3668L58.0731 27.3611ZM162.907 0.438549C162.438 0.341202 161.929 0.262084 161.419 0.207136C160.91 0.152187 160.412 0.122835 159.963 0.121273C159.619 0.116193 159.341 0.141895 159.172 0.194316C159.004 0.246736 158.954 0.322884 159.032 0.410716C159.38 0.45912 159.844 0.523657 160.105 0.55996C161.009 0.556408 161.78 0.509731 162.907 0.438549ZM250.675 8.64188C250.299 8.56351 249.884 8.5036 249.479 8.46897C249.074 8.43435 248.694 8.42642 248.383 8.44608C248.223 8.4546 248.331 8.54365 248.304 8.5953C248.286 8.60702 248.286 8.62158 248.305 8.63747C248.323 8.65337 248.358 8.67001 248.407 8.68565C248.456 8.70129 248.517 8.71536 248.583 8.72637C248.649 8.73738 248.718 8.74495 248.783 8.74826C249.191 8.78202 249.577 8.79206 249.905 8.77751C250.233 8.76295 250.493 8.72424 250.663 8.66483L250.675 8.64188ZM256.556 9.76211C256.497 9.71587 256.374 9.66768 256.207 9.62636C256.04 9.58505 255.841 9.55338 255.648 9.53717C255.305 9.535 254.993 9.54782 254.725 9.57516C254.434 9.59625 254.644 9.73013 255.037 9.80956C255.204 9.84145 255.382 9.86631 255.558 9.88219C255.733 9.89807 255.901 9.90452 256.048 9.90103C256.194 9.89754 256.316 9.8842 256.403 9.86207C256.491 9.83995 256.541 9.80966 256.55 9.77359L256.556 9.76211ZM85.679 -0.968822C84.8017 -1.13404 84.1264 -1.09248 83.3836 -1.15888C82.6408 -1.22529 82.4578 -1.23228 82.5573 -1.12601C82.6568 -1.01975 83.166 -1.0413 83.4849 -0.996933C83.9157 -0.938057 84.349 -0.90425 84.7365 -0.899284C85.1241 -0.894319 85.4504 -0.918395 85.679 -0.968822V-0.968822ZM268.503 26.9868C268.038 26.9498 267.583 26.9236 267.144 26.9086C267.086 26.924 267.05 26.9441 267.038 26.9678C267.025 26.9914 267.037 27.0181 267.072 27.0464C267.072 27.0464 267.369 27.1309 267.543 27.1551C268.184 27.2381 268.215 27.1193 268.503 26.9868V26.9868ZM334.184 42.3803C334.499 42.4919 334.645 42.5677 334.897 42.6212C335.013 42.6398 335.132 42.6533 335.247 42.6607C335.362 42.6682 335.468 42.6693 335.559 42.6641C335.67 42.6319 335.696 42.5828 335.632 42.5263C335.632 42.5263 335.311 42.4263 335.189 42.4216C334.841 42.398 334.504 42.3841 334.184 42.3803V42.3803ZM70.7451 -1.91346C70.0785 -2.00624 69.4407 -2.09499 68.9792 -1.98672C70.0378 -1.87021 70.0378 -1.8702 70.7451 -1.91346ZM81.5429 -0.854413C80.8697 -1.05283 80.4747 -1.07083 80.1515 -1.04803C80.0828 -1.04229 80.0374 -1.02949 80.0221 -1.01158C80.0067 -0.993673 80.0223 -0.971623 80.0665 -0.948766C80.1107 -0.925908 80.181 -0.903492 80.267 -0.884904C80.3529 -0.866317 80.4497 -0.852569 80.5426 -0.845745C80.8937 -0.840034 81.2285 -0.842934 81.5429 -0.854413V-0.854413ZM116.19 -0.770513C116.205 -0.79921 116.223 -0.833647 116.049 -0.857849C116.004 -0.870135 115.95 -0.8807 115.894 -0.888489C115.838 -0.896278 115.782 -0.90101 115.73 -0.902214C115.73 -0.902214 115.712 -0.867775 115.7 -0.844817L116.19 -0.770513ZM140.25 46.8737L139.862 46.8999L140.036 46.9241L140.495 46.9387L140.25 46.8737ZM276.58 9.31432C276.435 9.29415 276.29 9.27398 276.269 9.31415C276.238 9.32038 276.219 9.32936 276.214 9.34034C276.208 9.35133 276.215 9.36399 276.236 9.37729C276.236 9.37729 276.439 9.40553 276.525 9.41763L276.58 9.31432ZM254.009 9.63565C253.914 9.63334 253.828 9.63603 253.756 9.64356C253.756 9.64356 253.738 9.67799 253.738 9.67799L254.028 9.71833L254.009 9.63565ZM57.3076 17.8409C57.1956 17.8199 57.0769 17.8034 56.9597 17.7925L56.8148 17.7723C56.8148 17.7723 56.9705 17.8309 57.0575 17.843C57.1444 17.8551 57.2145 17.8402 57.3076 17.8409Z" fill="white"/>
</g>
</svg>
