<svg width="171" height="15" viewBox="0 0 171 15" fill="none" xmlns="http://www.w3.org/2000/svg">
<mask id="mask0_1_1486" style="mask-type:alpha" maskUnits="userSpaceOnUse" x="2" y="0" width="165" height="7">
<rect x="2.5" width="164.5" height="7" fill="#FF0000"/>
</mask>
<g mask="url(#mask0_1_1486)">
<path d="M29.7313 -1.63797L30.2352 -1.73316L29.2545 -1.86963L29.7246 -1.96952C30.196 -1.96861 30.8068 -1.81893 31.1391 -1.89846C31.1798 -1.97546 30.6665 -2.00018 30.5355 -2.06153C30.4196 -2.12442 30.325 -2.18689 30.2528 -2.24821C30.5095 -2.24755 30.7918 -2.23272 31.0828 -2.20459C31.4742 -2.15864 31.8581 -2.13631 32.1922 -2.14005C32.8753 -2.12764 33.5352 -2.14002 34.2779 -2.13729L34.0308 -2.32262L34.988 -2.27926C35.0894 -2.26515 35.2104 -2.28785 35.31 -2.27038C36.1396 -2.1226 36.4906 -2.20313 36.8888 -2.26991C36.9704 -2.28718 37.0688 -2.30008 37.1812 -2.30827C38.2878 -2.27287 39.2857 -2.06572 40.2823 -1.95938C40.4698 -1.93223 40.6497 -1.89738 40.8092 -1.8573C41.1558 -1.77938 41.5414 -1.71577 41.9306 -1.67227C42.3199 -1.62878 42.7003 -1.6068 43.0373 -1.60833C43.7824 -1.61005 44.6241 -1.55852 45.4812 -1.45871C45.736 -1.42583 45.991 -1.40415 46.23 -1.39503C46.4689 -1.38591 46.6866 -1.38956 46.8689 -1.40575L47.4483 -1.29996C47.6995 -1.34288 48.018 -1.36644 48.3845 -1.36919C48.7509 -1.37193 49.1577 -1.35382 49.5802 -1.31594C50.0304 -1.27485 50.4877 -1.24715 50.9548 -1.20371C51.9197 -1.12066 52.8588 -1.06987 53.7429 -1.05291C55.0594 -1.00267 56.3457 -0.96382 57.6739 -0.901179C58.5048 -0.870943 59.3144 -0.854313 60.0978 -0.851376C61.0362 -0.839549 62.0513 -0.782296 63.094 -0.682379V-0.682379C63.0446 -0.588634 62.5873 -0.616329 62.2805 -0.619502C61.2905 -0.635083 60.2772 -0.675459 59.2587 -0.70579C58.7999 -0.717629 58.3537 -0.722114 57.9227 -0.71921C57.2022 -0.723096 56.4426 -0.748075 55.6571 -0.793719C54.4161 -0.843943 53.2147 -0.868085 52.0652 -0.8659C51.9752 -0.862186 51.8926 -0.855607 51.8189 -0.84627C51.8036 -0.838183 51.8006 -0.827985 51.8101 -0.816657C51.8197 -0.805328 51.8416 -0.793242 51.8737 -0.781563C51.9058 -0.769884 51.947 -0.759003 51.9934 -0.749955C52.0398 -0.740908 52.0899 -0.733997 52.1387 -0.729891C52.5953 -0.66636 53.0856 -0.598126 53.5161 -0.588527C53.5327 -0.58781 53.5505 -0.586172 53.568 -0.58373C53.5856 -0.581289 53.6025 -0.578105 53.6175 -0.57441C54.5813 -0.44029 55.3737 -0.462986 56.1245 -0.441165C57.371 -0.382191 58.5725 -0.354643 59.711 -0.35894C59.8831 -0.358648 60.0689 -0.350981 60.2617 -0.336218C61.4541 -0.276372 62.5691 -0.269678 63.5544 -0.31644C63.9599 -0.328287 64.3369 -0.354882 64.7728 -0.355327C65.0412 -0.357158 65.2749 -0.374129 65.4597 -0.405226C65.6445 -0.436324 65.7767 -0.480903 65.8483 -0.536284C66.0321 -0.507126 66.2189 -0.481141 66.4062 -0.458638C66.5181 -0.445772 66.6255 -0.442354 66.7065 -0.449087C66.7875 -0.45582 66.8362 -0.4722 66.8428 -0.494914C66.8764 -0.558527 66.621 -0.590473 66.3994 -0.617713C66.5331 -0.631356 66.6836 -0.639382 66.8476 -0.641597C67.7709 -0.656133 68.7613 -0.638977 69.7972 -0.590507C70.6014 -0.532491 71.2434 -0.579713 72.0896 -0.497897C72.1911 -0.483779 72.2746 -0.5045 72.368 -0.509475C72.6115 -0.535676 72.9147 -0.541565 73.2516 -0.526628C73.5884 -0.51169 73.9486 -0.476377 74.301 -0.42375C74.7398 -0.567528 75.6877 -0.403274 76.3878 -0.388513C76.6033 -0.315394 76.356 -0.328249 76.3454 -0.30816C76.3348 -0.288072 76.3454 -0.308165 76.2608 -0.31993C75.5619 -0.216381 74.6043 -0.193802 73.5225 -0.255366C73.3224 -0.255111 73.1318 -0.250393 72.9524 -0.241259C72.6808 -0.228332 72.3745 -0.229623 72.047 -0.245076C71.6891 -0.256425 71.3604 -0.251034 71.0767 -0.229166C70.9134 -0.229522 70.7754 -0.218566 70.6753 -0.197308C70.5753 -0.17605 70.5165 -0.145177 70.5044 -0.10756C70.6133 -0.0785607 70.7342 -0.0520258 70.8622 -0.029009C71.5305 0.0618706 72.197 0.0994878 72.7304 0.0764416C73.6588 0.0367333 74.7637 0.0754826 75.7509 0.0619265C76.4182 0.0564348 77.1284 0.0720775 77.8679 0.108562C77.8679 0.108562 77.8485 0.14539 77.8467 0.148738C77.9342 0.164684 78.0261 0.177477 78.1173 0.186387C78.1173 0.186387 78.1173 0.186387 78.1261 0.169647C78.0856 0.153571 78.0306 0.138448 77.9676 0.126028L77.7478 0.0954383C77.8972 0.0874779 78.0368 0.0637769 78.1925 0.0782577C78.5205 0.105161 78.834 0.116519 79.1142 0.111656C79.3944 0.106794 79.6354 0.085808 79.8227 0.0499598C80.1547 0.00401586 80.5675 -0.0168777 81.0347 -0.0113715C81.3927 -0.0163873 81.7377 -0.0271679 82.0681 -0.043659C82.0681 -0.043659 82.0893 -0.0838319 82.2458 -0.105184C82.0976 -0.13152 81.9431 -0.153025 81.7893 -0.168712C81.1203 -0.207905 80.4495 -0.243751 79.7921 -0.270547C79.5499 -0.273442 79.3223 -0.268952 79.1135 -0.257166C78.5351 -0.243373 77.8853 -0.262948 77.2019 -0.31475C77.2019 -0.31475 77.0666 -0.333573 76.999 -0.342985C77.1908 -0.431298 77.8519 -0.342886 78.1194 -0.402694C78.2822 -0.401606 78.5686 -0.394085 78.5588 -0.40983C78.5365 -0.430841 78.5338 -0.45036 78.551 -0.466987C78.5682 -0.483613 78.6047 -0.496937 78.6581 -0.506C78.7115 -0.515064 78.7802 -0.519645 78.8596 -0.519412C78.9389 -0.519179 79.0268 -0.514137 79.117 -0.504652C79.8696 -0.453342 80.5785 -0.439073 81.2002 -0.46272C81.4359 -0.462263 81.7001 -0.447056 81.9341 -0.443251C82.0773 -0.438669 82.208 -0.441217 82.3192 -0.450756C82.8844 -0.52101 83.6449 -0.52614 84.4867 -0.465378C84.8934 -0.443532 85.2736 -0.440611 85.6074 -0.456763C85.8448 -0.459654 85.9455 -0.409706 86.1146 -0.386176L86.8326 -0.336575L85.9105 -0.274424C86.1076 -0.131992 86.2643 -0.0850272 86.5863 -0.0761538C87.0561 -0.0627537 87.5135 -0.0566998 87.9561 -0.0580299C88.2834 -0.0592006 88.5537 -0.0898746 88.9968 -0.035393C89.0751 -0.0265068 89.1505 -0.0236305 89.2103 -0.027247C89.7293 -0.0756145 90.3542 -0.0867151 91.0424 -0.0597907C91.3987 -0.150363 92.0057 -0.0623031 92.5672 0.0086494C92.7484 -0.0595756 92.42 -0.0908935 92.2242 -0.132521C92.6938 -0.12826 93.167 -0.130694 93.6518 -0.120731C93.7976 -0.124358 93.9643 -0.118154 94.1387 -0.102608C94.3132 -0.0870623 94.4906 -0.0626002 94.6572 -0.0311335C94.7384 -0.0108018 94.8363 0.00450031 94.9305 0.0115952C95.0248 0.0186901 95.1082 0.0170351 95.1634 0.00697274C95.415 -0.022703 95.818 0.00462955 96.026 -0.0454973C96.0999 -0.0570257 96.2056 -0.0586351 96.3241 -0.0500442C96.4426 -0.0414534 96.5662 -0.0232179 96.6728 0.00139256V0.00139256C96.5561 0.00907113 96.4522 0.0211628 96.3634 0.0374011C96.0452 0.0901502 96.1621 0.178288 96.5664 0.306427C97.1872 0.299379 97.8213 0.301381 98.3967 0.27723C98.7174 0.255551 99.1104 0.262328 99.5315 0.296801C99.9525 0.331273 100.385 0.392072 100.78 0.472364C100.923 0.503239 101.086 0.524621 101.237 0.532269C101.388 0.539917 101.515 0.533268 101.593 0.513638C101.642 0.490937 101.657 0.462206 101.637 0.429937L101.232 0.373468C101.232 0.373468 101.248 0.343335 101.251 0.336639L101.835 0.331577C102.143 0.331401 102.465 0.340277 102.757 0.337748C103.185 0.320932 103.675 0.330305 104.194 0.365286C104.674 0.401155 105.145 0.428268 105.604 0.446385C106.047 0.465033 106.369 0.405584 106.792 0.39609C107.111 0.388934 107.462 0.396582 107.832 0.418734C108.471 0.458024 109.058 0.458097 109.538 0.418946C110.099 0.629883 110.371 0.66418 110.891 0.607182L111.135 0.590899L111.202 0.636142L111.389 0.626193C111.739 0.617331 112.088 0.608473 112.453 0.605313C112.96 0.624889 113.507 0.677555 114.042 0.758171C114.143 0.772289 114.281 0.820255 114.371 0.857809C114.46 0.895363 114.654 1.00865 114.797 1.08241C114.641 1.13624 114.469 1.18773 114.345 1.24962C114.333 1.26019 114.334 1.2728 114.349 1.28643C114.364 1.30006 114.391 1.31433 114.43 1.3281C114.469 1.34186 114.517 1.35473 114.571 1.36569C114.626 1.37664 114.684 1.38536 114.743 1.39115C114.856 1.40363 114.968 1.41195 115.074 1.41577C115.597 1.42235 116.097 1.41746 116.57 1.40114C116.743 1.37811 116.98 1.37592 117.243 1.39493C117.505 1.41393 117.78 1.45303 118.021 1.50604C118.641 1.47421 119.36 1.48361 120.13 1.53358C120.945 1.50319 121.929 1.56465 122.69 1.49806C122.672 1.53154 122.751 1.58919 122.86 1.6224C123.034 1.67284 123.23 1.7196 123.441 1.76067L125.05 1.84087C125.11 1.88211 125.186 1.92386 125.275 1.96557C125.336 1.99852 125.442 2.03076 125.572 2.05546C125.701 2.08016 125.843 2.09537 125.967 2.09788C126.288 2.1101 126.556 2.08278 126.938 2.15029C126.35 2.2141 125.557 2.20563 124.7 2.12636C123.895 2.06608 123.121 2.03595 122.406 2.0371C122.17 2.03664 121.86 2.04016 121.786 2.07663C121.623 2.17969 121.196 2.1634 120.698 2.14439C120.306 2.12358 119.949 2.12591 119.655 2.1512C119.36 2.17649 119.138 2.22401 119.005 2.28986C118.972 2.35347 119.052 2.40777 119.396 2.44478L120.824 2.59321C121.034 2.57413 121.234 2.55154 121.422 2.52554C121.739 2.491 122.13 2.48152 122.566 2.49784C123.001 2.51415 123.468 2.55582 123.932 2.6196C124.168 2.65254 124.405 2.68548 124.577 2.66983C124.727 2.65185 124.866 2.63032 124.992 2.60541C125.017 2.58871 125.027 2.56949 125.022 2.54849C125.113 2.55826 125.204 2.57095 125.292 2.58614C125.997 2.76333 126.544 2.76026 127.04 2.7143C127.174 2.70064 127.276 2.67893 127.412 2.66192C127.548 2.64491 127.596 2.62283 127.72 2.62926C128.705 2.68737 128.989 2.49327 129.82 2.50107C129.861 2.49349 129.886 2.48215 129.893 2.46811C129.901 2.45407 129.89 2.43777 129.862 2.42072C129.804 2.40532 129.736 2.39208 129.665 2.38221C129.594 2.37234 129.522 2.36616 129.457 2.36425C129.074 2.33934 128.737 2.34697 128.501 2.38585C128.335 2.40174 128.158 2.4144 127.973 2.42376L127.141 2.14269C127.947 2.16845 128.71 2.16828 129.41 2.14218C129.563 2.12753 129.822 2.15278 130.038 2.15758L131.621 2.18385C131.946 2.18603 132.224 2.14196 132.678 2.24468C132.678 2.24468 132.978 2.26124 133.057 2.24721C133.137 2.23319 133.492 2.14596 133.704 2.08914C133.949 2.10534 134.289 2.14906 134.442 2.1344C134.709 2.0984 134.94 2.05225 135.132 1.99678L136.088 2.07597C136.087 2.14632 136.052 2.2125 135.984 2.2735C135.909 2.33234 135.912 2.40297 135.991 2.4796C136.071 2.55624 136.225 2.63672 136.441 2.71446L137.385 3.1262C137.539 3.15378 137.704 3.17234 137.856 3.17936C138.008 3.18639 138.141 3.18155 138.236 3.16549C138.642 3.11781 139.097 3.08053 139.504 3.03285C140.028 3.1058 139.893 3.22361 140.274 3.32696L141.508 3.49872C141.697 3.65789 141.888 3.81037 141.316 3.86366C141.202 3.87297 141.279 3.93397 141.175 3.95903C141.62 4.07848 142.109 4.11424 142.561 4.18781C142.739 4.24073 142.887 4.29674 143 4.35314C143.123 4.43806 143.374 4.52481 143.697 4.59466C144.02 4.6645 144.39 4.71183 144.727 4.72643C145.292 4.77115 145.871 4.83831 146.437 4.9249C146.63 4.95501 146.829 4.97695 147.02 4.98924C147.211 5.00153 147.389 5.00388 147.543 4.99614C148.091 4.9825 148.554 4.93561 148.904 4.85852C149.249 4.79311 149.715 4.76158 150.259 4.76679C151.189 4.89621 151.377 5.09121 151.939 5.26297L150.967 5.28223C150.932 5.34919 150.996 5.43362 150.598 5.43207C150.199 5.43052 150.402 5.49459 150.531 5.55929C150.576 5.59184 150.665 5.62532 150.782 5.65407C150.899 5.68281 151.038 5.70505 151.174 5.71703L152.001 5.79984C152.294 5.83136 152.578 5.84481 152.822 5.83874C153.065 5.83266 153.258 5.80728 153.38 5.76539C153.52 5.72561 153.714 5.6987 153.948 5.68631C154.248 5.65386 154.494 5.6056 154.677 5.54335L155.845 5.63404C155.895 5.57149 156.056 5.52763 156.3 5.50988C156.544 5.49212 156.857 5.50156 157.185 5.53661L157.973 5.59228C158.848 5.65301 159.04 5.63301 159.297 5.45666L158.247 5.14165C158.399 5.05867 158.547 4.98574 158.694 4.91281C158.433 4.80903 158.084 4.71087 157.683 4.6283C157.309 4.53958 156.924 4.45365 156.53 4.37084C156.103 4.28623 155.651 4.21265 155.121 4.11727C155.028 4.08641 154.894 4.03175 154.722 3.97908C154.55 3.9279 154.37 3.87773 154.184 3.82877C154.219 3.76181 154.251 3.70155 154.183 3.62382C154.51 3.64862 154.848 3.692 155.165 3.75004C155.483 3.80809 155.772 3.87897 156.004 3.9563C156.043 3.97002 156.091 3.9829 156.145 3.99408C156.199 4.00526 156.257 4.01447 156.315 4.0211C156.889 4.06862 157.163 4.16788 157.444 4.28959C157.633 4.35181 157.876 4.40707 158.141 4.44769C158.648 4.51828 159.145 4.60896 159.63 4.68724C159.778 4.71332 159.933 4.7348 160.086 4.75077C160.593 4.80155 161.104 4.87256 161.591 4.96019C161.75 4.98246 161.903 5.01193 162.037 5.04614C162.17 5.08035 162.28 5.1183 162.359 5.15683C162.238 5.19904 162.173 5.25232 162.167 5.31346C162.146 5.35363 162.502 5.43554 162.67 5.4949C162.839 5.55426 162.509 5.52629 162.397 5.53226C161.937 5.54375 161.851 5.56781 162.127 5.69957C162.219 5.741 162.28 5.78245 162.306 5.82135C162.332 5.86025 162.324 5.89577 162.28 5.92571C162.214 6.04959 162.016 6.15129 161.879 6.27245C162.091 6.35227 162.445 6.43751 162.484 6.53632C162.503 6.55824 162.542 6.58147 162.599 6.60432C162.656 6.62717 162.729 6.64907 162.814 6.66844C163.036 6.71026 163.239 6.76027 163.405 6.8146C163.572 6.86893 163.698 6.92611 163.774 6.98173C163.799 7.00473 163.859 7.02913 163.942 7.05005C164.025 7.07096 164.125 7.08684 164.222 7.09449C164.338 7.10389 164.442 7.10265 164.513 7.09103C164.583 7.07941 164.614 7.05829 164.6 7.03205C164.603 6.98276 164.588 6.93137 164.554 6.87832C164.574 6.84149 164.593 6.80466 164.516 6.74367C164.863 6.76593 165.227 6.81053 165.568 6.87265C165.91 6.93476 166.216 7.012 166.454 7.09597C166.717 7.18284 166.959 7.27407 167.25 7.37569C167.19 7.48952 167.19 7.48952 167.81 7.69078L171.098 7.78892L171.772 7.92222C172.4 8.03842 172.549 8.03046 172.944 7.97039L173.21 7.91392C173.768 7.99157 174.41 8.08098 174.759 7.93549C174.873 8.03032 174.946 8.06217 174.921 8.07656C174.754 8.21651 174.465 8.33525 174.064 8.42809C173.962 8.44981 173.89 8.48292 173.771 8.50229C173.387 8.61157 173.297 8.78045 173.522 8.97436C173.633 9.06017 173.794 9.14804 174.001 9.23515C173.699 9.35603 173.298 9.45618 172.809 9.53293C172.395 9.5923 172.054 9.67181 171.796 9.76918C171.564 9.86735 171.216 9.94114 170.774 9.98633C170.549 10.0055 170.385 10.0434 170.298 10.0963C170.272 10.2393 170.332 10.3924 170.475 10.5521C170.502 10.6008 170.579 10.6533 170.699 10.7056C170.82 10.7579 170.98 10.8085 171.169 10.8536C171.169 10.8536 171.26 10.8878 171.304 10.9082C171.34 11.0814 171.204 11.234 170.904 11.3558C170.855 11.3903 170.755 11.4153 170.614 11.428C170.473 11.4406 170.297 11.4406 170.104 11.4277C169.697 11.4071 169.318 11.4045 168.925 11.3929C168.501 11.3765 168.128 11.3895 167.844 11.4303C167.561 11.4712 167.377 11.5385 167.314 11.6252C167.31 11.6497 167.297 11.6732 167.277 11.6955C167.265 11.707 167.258 11.7193 167.257 11.7323L168.16 12.0161L167.139 12.1291C167.079 12.243 167.569 12.3112 167.815 12.3957L167.663 12.4429C167.467 12.4695 167.204 12.4185 166.965 12.3889L166.729 12.356L166.7 12.4095C166.553 12.4825 166.016 12.4005 165.806 12.454C165.596 12.5074 165.746 12.5678 166.06 12.6259C166.278 12.6691 166.513 12.7035 166.746 12.7266C166.979 12.7497 167.204 12.7608 167.405 12.7592C167.525 12.7535 167.625 12.7404 167.698 12.7208C168.122 12.6374 168.59 12.5657 169.1 12.5062C169.49 12.4528 169.979 12.4301 170.532 12.4396C170.695 12.4356 170.89 12.4483 171.085 12.4754C171.28 12.5025 171.461 12.5423 171.597 12.5879V12.5879L171.884 12.5954C171.884 12.5954 172.041 12.6424 172.018 12.6501C171.909 12.7892 172.036 12.9593 172.38 13.1352V13.1352L172.081 13.1511C171.654 13.1348 171.925 13.2408 171.861 13.293C171.557 13.2831 171.163 13.239 171.019 13.3053L170.804 13.3005L170.889 13.3122L170.991 13.2905L171.392 13.3895C171.202 13.4062 171.064 13.4265 170.896 13.4355C170.803 13.4433 170.73 13.457 170.679 13.4759C170.628 13.4948 170.602 13.5185 170.602 13.5455C170.603 13.587 170.553 13.622 170.457 13.647C170.361 13.6721 170.223 13.6864 170.055 13.6886C169.855 13.6895 169.74 13.7346 169.623 13.7506L170.133 14.0228C170.133 14.0228 169.879 13.9875 170.017 14.0355L170.035 14.002L170.344 14.0702C170.566 14.1299 170.722 14.1444 170.853 14.1016C170.985 14.0588 170.955 14.1157 171.018 14.0993C170.995 14.1428 170.852 14.1732 170.729 14.1993C170.588 14.2197 170.427 14.2348 170.252 14.2442C170.568 14.4356 170.584 14.4413 170.121 14.492C169.659 14.5427 169.818 14.6188 169.432 14.6296C169.045 14.6405 169.485 14.77 169.743 14.7952C169.935 14.8118 170.131 14.8377 170.317 14.871C170.503 14.9044 170.675 14.9444 170.821 14.9883L170.744 15.1357C170.63 15.1235 170.516 15.1076 170.405 15.0886C170.031 15.0077 169.69 14.9315 169.356 14.9785L169.515 15.0905L168.351 15.0256C168.382 15.1095 168.559 15.205 168.846 15.2921V15.2921C168.803 15.3399 168.776 15.3902 168.767 15.4427C168.747 15.4796 168.632 15.4564 168.558 15.4604C168.291 15.4665 168.073 15.4915 167.921 15.5331C167.769 15.5746 167.689 15.6315 167.688 15.6987C167.658 15.7556 168.067 15.8737 168.324 15.8698C168.963 15.8812 169.655 15.925 170.361 15.9988C170.791 16.0084 170.852 15.8588 171.561 15.9609C171.575 16.03 171.484 16.086 171.302 16.1203C171.12 16.1547 170.857 16.1655 170.553 16.1513C170.726 16.3048 171.685 16.3448 171.727 16.5052C171.488 16.4939 171.233 16.4672 170.987 16.4279C170.74 16.3885 170.511 16.3378 170.321 16.2808C170.28 16.2667 170.229 16.2538 170.172 16.2431C170.115 16.2325 170.054 16.2244 169.995 16.2198C169.936 16.2152 169.88 16.2141 169.834 16.2166C169.787 16.2191 169.751 16.2252 169.729 16.2343C169.861 16.2923 170.007 16.3593 170.174 16.422C170.341 16.4847 170.381 16.5119 170.501 16.525C171.397 16.6497 171.823 16.8743 172.598 17.0217C172.801 17.05 172.826 17.1397 172.65 17.1296C172.483 17.1194 172.331 17.1208 172.212 17.1334C172.093 17.1461 172.012 17.1696 171.977 17.2013C171.847 17.2382 171.685 17.2676 171.496 17.2887C172.291 17.5192 173.239 17.7229 174.251 17.8806C174.442 17.9117 174.642 17.9307 174.821 17.9348C175.386 17.935 175.985 17.9533 176.607 17.9893C176.828 17.9991 177.031 17.9982 177.207 17.9866C177.785 17.9591 178.243 18.0193 178.662 18.189L179.355 18.4579C179.332 18.5014 179.215 18.5499 179.126 18.6165L179.667 18.7601L183.798 18.4294L184.627 18.7496L185.816 18.7318C185.908 18.7411 185.999 18.7538 186.087 18.7695C186.327 18.864 186.516 18.9549 186.777 19.0451C187.037 19.1353 187.504 19.1463 187.829 19.2526C188.154 19.359 188.479 19.3611 188.881 19.4243C188.919 19.5066 188.88 19.5807 188.767 19.6419C188.73 19.7122 188.525 19.7557 188.49 19.8226C188.494 19.8903 188.418 19.9478 188.269 19.9898C188.12 20.0318 187.903 20.0571 187.637 20.0633C186.893 20.2074 185.995 20.31 184.972 20.368C184.882 20.3722 184.807 20.382 184.753 20.3966C184.698 20.4113 184.665 20.4306 184.654 20.4533C184.656 20.5189 184.588 20.5757 184.455 20.6194C184.322 20.6631 184.127 20.6925 183.886 20.7057C183.822 20.7083 183.773 20.7166 183.746 20.7294C183.655 20.7377 183.588 20.7535 183.553 20.7754C183.517 20.7972 183.515 20.8244 183.544 20.8542C183.574 20.884 183.636 20.9155 183.723 20.9456C183.811 20.9756 183.921 21.0033 184.044 21.0259C184.222 21.0624 184.403 21.0972 184.588 21.1304C184.577 21.1505 184.394 21.1537 184.421 21.1718C184.493 21.2296 184.51 21.2837 184.47 21.3299C184.429 21.3761 184.334 21.4131 184.189 21.4379L185.177 21.906C185.776 21.9708 186.364 22.0807 186.829 22.2149C186.829 22.2369 186.803 22.2553 186.751 22.2683C186.7 22.2814 186.625 22.2885 186.536 22.2891C186.295 22.2987 186.067 22.3173 185.807 22.3279C185.648 22.3358 185.516 22.3532 185.419 22.3791C185.321 22.405 185.259 22.4388 185.238 22.4787L185.817 22.6528C185.632 22.6952 185.494 22.7156 185.371 22.7416C185.441 22.7963 185.56 22.8529 185.721 22.907C185.881 22.9611 186.078 23.0112 186.296 23.0536C186.354 23.0623 186.414 23.0686 186.471 23.0723C186.528 23.076 186.582 23.0768 186.629 23.0748C187.078 23.0151 187.603 23.1205 188.113 23.2203C188.623 23.32 188.9 23.3801 189.277 23.4576L189.997 23.4681C190.18 23.5048 190.342 23.5479 190.472 23.5941C190.603 23.6403 190.696 23.6882 190.746 23.734C190.707 23.8077 190.366 23.7673 190.162 23.7749C189.679 23.8207 189.044 23.811 188.362 23.7472C188.193 23.7237 188.019 23.7427 187.855 23.7449C187.5 23.7541 187.159 23.769 186.833 23.7896C186.619 23.8088 186.418 23.8325 186.233 23.8606C186.184 23.9544 186.962 24.0268 186.52 24.0731C186.672 24.0943 186.729 24.1238 186.808 24.1131C187.309 24.174 187.803 24.2041 188.232 24.1999C189.056 24.187 189.991 24.2297 190.961 24.3245C192.009 24.4228 193.013 24.4641 193.892 24.4449C194.227 24.4438 194.601 24.4639 194.987 24.5038C195.441 24.559 195.893 24.5937 196.312 24.6056C196.451 24.606 196.606 24.6154 196.764 24.633C196.921 24.6506 197.078 24.6759 197.221 24.7069V24.7069C197.208 24.7303 197.072 24.7473 197.103 24.7587C197.536 24.9341 197.712 25.1167 198.38 25.2959C198.837 25.3594 199.361 25.4324 199.659 25.3481C199.958 25.2639 199.851 25.1915 199.257 24.9758C199.386 24.9727 199.541 24.9828 199.696 25.0043C199.85 25.0258 199.994 25.0574 200.102 25.0935L200.616 25.2548L201.079 25.4091C201.038 25.4861 201.007 25.5464 200.973 25.61C200.92 25.6776 200.978 25.7598 201.139 25.8452C201.237 25.8918 201.321 25.9384 201.393 25.9846C201.682 26.1695 201.766 26.3442 201.635 26.4891C201.383 26.6976 201.033 26.8893 200.588 27.0623C200.118 27.2305 199.861 27.4426 199.474 27.626C199.277 27.7094 199.037 27.7843 198.757 27.8496C198.227 27.9951 197.646 28.1334 197.114 28.2822C196.581 28.4309 195.98 28.5378 195.389 28.6604C194.509 28.8059 193.558 28.9315 192.541 29.0367C191.912 29.1288 191.266 29.2185 190.683 29.3244C189.996 29.4437 189.188 29.5294 188.28 29.5793C187.478 29.6391 186.762 29.7275 186.145 29.8428C186.08 29.8553 186.029 29.8711 185.993 29.8899C185.882 30.0075 185.57 30.0904 185.106 30.1259C185.134 30.1603 185.17 30.1953 185.214 30.2308C185.279 30.273 185.292 30.3125 185.253 30.3442C185.213 30.3759 185.123 30.3983 184.993 30.4085C184.622 30.4376 184.314 30.4871 184.081 30.5547C183.996 30.5717 183.943 30.5964 183.927 30.6267C183.911 30.657 183.933 30.6921 183.99 30.7288C184.04 30.7666 184.044 30.8014 184 30.8287C183.957 30.856 183.868 30.8744 183.746 30.8817C183.431 30.9175 183.095 30.9463 182.738 30.968C181.979 31.0156 181.097 31.0151 180.144 30.9663C180.042 30.9522 179.94 30.9739 179.822 30.9574C179.148 30.9028 178.522 30.8943 178.02 30.933C177.431 30.9481 176.815 30.9451 176.195 30.9522C175.298 30.9475 174.47 30.9762 173.736 31.0377C172.896 30.9783 172.424 31.0815 171.715 31.0835C171.061 31.0941 170.44 31.1195 169.86 31.1596C168.924 31.2127 167.993 31.2591 167.07 31.3212C166.205 31.3509 165.409 31.4075 164.694 31.4901C164.421 31.5275 163.925 31.4693 163.739 31.5476C163.552 31.6258 163.176 31.6166 162.872 31.6426L161.912 31.7067C161.747 31.722 161.566 31.7316 161.371 31.7356C160.479 31.7408 159.861 31.8453 159.033 31.8666L158.948 31.8549C157.478 32.0102 155.796 32.0955 153.951 32.1081C152.873 32.1558 151.694 32.1535 150.551 32.1884C150.278 32.2583 149.634 32.1722 149.292 32.236C148.949 32.2998 148.391 32.258 147.949 32.2685C147.508 32.279 147.077 32.3052 146.606 32.3043C146.196 32.3046 145.851 32.3331 145.6 32.3872C145.028 32.4766 144.331 32.5291 143.54 32.5425C142.493 32.5657 141.503 32.6185 140.439 32.6069C140.454 32.672 140.389 32.7275 140.249 32.7675C140.11 32.8075 139.902 32.8306 139.647 32.8345C138.509 32.8594 137.476 32.9242 136.323 32.9433L136.014 32.9435L132.564 32.9809C131.635 32.9881 130.739 33.0001 129.791 33.0083C129.436 32.9589 129.427 33.0439 129.182 33.0277C129.113 32.9858 129.032 32.9674 128.911 32.9901L128.885 33.0403L124.948 33.1069C123.406 33.1556 121.784 33.1702 120.097 33.1506C119.696 33.1555 119.323 33.1722 118.982 33.2003C118.665 33.2105 118.336 33.2151 117.994 33.2138C117.533 33.2012 117.082 33.1948 116.643 33.1947C115.49 33.2139 114.279 33.2035 113.016 33.1895C111.753 33.1755 110.796 33.2004 109.672 33.1985C108.911 33.1968 108.153 33.1883 107.365 33.1685C106.988 33.1593 106.525 33.1091 106.135 33.0908C105.745 33.0726 105.618 33.0728 105.567 33.1016C105.397 33.1822 104.971 33.1301 104.63 33.1222C103.966 33.1088 103.871 33.0813 103.691 32.8729L104.506 32.8067C104.706 32.7853 104.957 32.7815 105.236 32.7958C105.515 32.81 105.811 32.8417 106.097 32.8879C106.209 32.9077 106.327 32.9233 106.443 32.9339C106.559 32.9444 106.671 32.9498 106.772 32.9495C107.595 32.9382 108.406 32.9145 109.197 32.8952L109.312 32.8825L109.319 32.6966C109.215 32.6784 109.106 32.6633 108.998 32.6519L105.033 32.5313C104.123 32.5017 103.178 32.4349 102.285 32.4077C101.392 32.3804 100.91 32.3638 100.217 32.3356C99.925 32.3196 99.6268 32.2985 99.3251 32.2725C99.3426 32.2546 99.3526 32.2356 99.3551 32.2156C99.371 32.1855 99.3922 32.1453 99.264 32.1131C99.1241 32.0676 98.9372 32.0288 98.7405 32.0043C98.5559 31.9882 98.3767 31.979 98.2104 31.9772C97.4061 31.9617 96.4875 31.8635 95.6504 31.7037L95.3582 31.8103C94.1012 31.7504 92.8255 31.6915 91.5125 31.6345C91.2496 31.619 90.9736 31.5892 90.7054 31.5474C90.418 31.5074 90.1535 31.4239 89.8509 31.3782C89.5519 31.3453 89.255 31.3196 88.9656 31.3017C89.044 31.2742 89.1473 31.2523 89.2723 31.2365C89.3953 31.231 89.4848 31.2139 89.5281 31.1876C89.5713 31.1613 89.566 31.1272 89.5127 31.0903C89.4191 31.027 89.378 30.9673 89.5816 30.9597C89.7698 30.9453 89.9044 30.914 89.9696 30.8696C90.0348 30.8252 90.0279 30.7695 89.9497 30.7091C89.9154 30.6738 89.8913 30.6392 89.8773 30.6056V30.6056L89.7927 30.5938C89.5139 30.4687 88.9569 30.4236 88.5572 30.3212C88.3685 30.2916 88.1732 30.2745 88.002 30.2727C87.5599 30.2507 87.1293 30.2411 86.6721 30.2134C86.4537 30.2007 86.2252 30.1775 86.0002 30.1451C85.679 30.1004 85.6452 30.0957 85.4587 29.9332C85.7483 29.936 85.978 29.9117 86.1087 29.8644C86.2395 29.8171 86.2634 29.7498 86.1763 29.6737C85.9373 29.5074 85.685 29.3321 84.6038 29.214C84.9563 29.2082 85.2957 29.1966 85.6203 29.1794C85.7148 29.1757 85.7855 29.1635 85.823 29.1444C85.8605 29.1253 85.863 29.1003 85.8302 29.0727C85.7974 29.0451 85.7309 29.0161 85.6394 28.9898C85.548 28.9635 85.4361 28.941 85.3187 28.9254C84.7481 28.8314 84.1528 28.7684 83.5996 28.7437C83.1335 28.7327 82.7128 28.7389 82.1685 28.7386L81.526 28.6492C81.5366 28.6291 81.4422 28.6016 81.4662 28.5905C81.6294 28.4875 81.8096 28.3867 81.995 28.276C81.6988 28.2162 81.4422 28.144 81.2545 28.0677C81.0669 27.9913 80.9558 27.914 80.9341 27.8444C80.9181 27.8235 80.9222 27.8043 80.9463 27.7884C80.9704 27.7725 81.0137 27.7602 81.0733 27.7524C81.2425 27.739 81.3731 27.7133 81.455 27.6773C81.5369 27.6414 81.5679 27.5961 81.5457 27.545L81.0461 27.3569C79.5416 27.2227 78.0643 27.1267 76.6413 27.071L75.3568 27.0288C75.2019 26.9785 75.2498 26.9564 75.3957 26.9551C75.5416 26.9538 75.9516 26.9678 76.2381 26.9753C76.4854 26.9852 76.7051 26.9787 76.8758 26.9565C77.0465 26.9343 77.1624 26.8971 77.2124 26.8485L76.7811 26.634C76.8023 26.5938 76.8323 26.5369 77.0662 26.5407C77.2261 26.5361 77.3438 26.5158 77.4005 26.4833C77.4572 26.4508 77.4495 26.4078 77.3786 26.3614C77.3679 26.3278 77.384 26.2972 77.4263 26.271C77.7723 26.2688 78.1165 26.27 78.4304 26.2598C78.5766 26.2564 78.7001 26.2439 78.7924 26.2233C78.8847 26.2026 78.9438 26.1743 78.9654 26.1401C78.9767 26.1068 78.9491 26.0689 78.8849 26.0293C78.8206 25.9898 78.7214 25.9498 78.5954 25.9126C78.1034 25.8665 77.6533 25.8659 77.344 25.9109C77.2337 25.9462 77.0565 25.9655 76.8358 25.9662C76.6151 25.9669 76.3612 25.949 76.1077 25.915C75.8173 25.8757 75.5276 25.8584 75.2906 25.8663C75.0535 25.8741 74.8848 25.9066 74.8146 25.9578C74.5166 25.9379 74.2524 25.9227 73.9917 25.9008C73.6842 25.8732 73.3935 25.865 73.1511 25.8773C72.7632 25.8859 72.3453 25.8809 71.9067 25.8622C70.6426 25.8157 69.3768 25.7725 68.1529 25.7531C67.8291 25.7476 67.5489 25.7625 67.2287 25.7503C66.9085 25.7381 66.6551 25.7711 66.2546 25.7046C66.1784 25.6943 66.1016 25.6876 66.0304 25.6852C65.9592 25.6828 65.8956 25.6846 65.8445 25.6906C65.1412 25.7432 64.3166 25.7507 63.4191 25.7125C62.1899 25.7032 60.9152 25.6767 59.6842 25.6707C59.3232 25.6759 58.982 25.6897 58.6642 25.7121C58.4224 25.7256 58.1691 25.7347 57.9056 25.7395C57.7038 25.7437 57.5107 25.7312 57.5447 25.8042C57.5788 25.8773 57.2763 25.8316 57.1019 25.8181C56.5028 25.7827 55.8905 25.7347 55.2718 25.6748C54.6622 25.6097 54.0649 25.5718 53.5156 25.5634C53.1189 25.5585 52.7098 25.577 52.1998 25.4773C52.2192 25.4405 52.2386 25.4036 52.3497 25.3652C51.9337 25.2594 51.4592 25.1683 50.9652 25.0996C50.4713 25.0309 49.9721 24.9864 49.5091 24.9699L48.8706 24.7696C48.7134 24.7461 48.5529 24.729 48.3989 24.7193C48.2449 24.7096 48.1005 24.7075 47.9747 24.7132C47.8774 24.7161 47.7589 24.7087 47.6409 24.6923C47.5229 24.6758 47.4133 24.6515 47.3322 24.6238C47.2109 24.5886 47.0628 24.5581 46.9064 24.5364C46.75 24.5146 46.5923 24.5025 46.453 24.5015C46.0142 24.4797 45.5459 24.4294 45.096 24.3558C44.9792 24.3126 44.9061 24.268 44.8855 24.2274C44.865 24.1869 44.898 24.1522 44.9804 24.1276C45.1133 24.0842 45.188 24.029 45.1998 23.9651C45.2116 23.9013 45.1604 23.8302 45.0492 23.7563C44.9923 23.7109 44.9733 23.6679 44.9933 23.6299C45.0134 23.5919 45.072 23.5597 45.1658 23.5353C45.5158 23.4223 45.4222 23.359 44.8495 23.1715C44.7565 23.1402 44.6444 23.111 44.5203 23.0857C44.3961 23.0603 44.2628 23.0395 44.1285 23.0244C43.8136 22.9938 43.503 22.9711 43.2024 22.9566C43.0333 22.9331 42.8599 22.9521 42.6651 22.9429C41.6909 22.8972 41.5484 22.8235 41.2329 22.6646L41.003 22.5499C40.5766 22.457 40.1102 22.3799 39.6375 22.3241C39.1648 22.2682 38.6976 22.2351 38.2694 22.227C38.0992 22.2264 37.9036 22.2105 37.7125 22.1818C37.0904 22.0941 36.4605 22.0334 35.8644 22.0037C35.4929 21.987 35.0925 21.9438 34.7112 21.8793C34.33 21.8147 33.984 21.7316 33.715 21.6399C33.4733 21.5573 33.1572 21.4832 32.8105 21.4278C32.4047 21.3713 32.3671 21.305 32.5937 21.2539C32.8204 21.2028 33.1999 21.137 33.5368 21.0832C33.654 21.065 33.7266 21.0353 33.7466 20.9974C33.7666 20.9596 33.733 20.9151 33.6498 20.869C33.5964 20.79 33.5871 20.715 33.6222 20.6459C33.641 20.6172 33.628 20.5843 33.5842 20.5493C33.5404 20.5144 33.4667 20.4783 33.3681 20.4435C33.2695 20.4087 33.1483 20.3759 33.0127 20.3474C32.8771 20.3189 32.7302 20.2954 32.582 20.2783C31.9564 20.1913 31.3476 20.1066 30.7097 20.0429C30.4423 20.0129 30.1752 19.9758 29.915 19.9323C29.3822 19.8249 28.8123 19.7358 28.2383 19.6703C27.9658 19.6409 27.6995 19.5897 27.4969 19.5276C26.8578 19.3602 26.2689 19.1842 25.7408 19.0029C25.6136 18.9466 25.4471 18.8917 25.2517 18.8417C25.0564 18.7916 24.8364 18.7474 24.6057 18.7119C24.4197 18.686 24.2683 18.629 24.125 18.5911C24.0208 18.5033 24.0096 18.4221 24.0926 18.355C24.1756 18.288 24.35 18.2374 24.5993 18.2079C24.8358 18.1725 25.0571 18.1315 25.2615 18.088C25.5079 18.0529 25.8008 18.0318 26.1293 18.0255C26.5185 18.0067 26.8062 17.9528 26.955 17.8709C25.8898 17.7226 24.8768 17.5098 23.9431 17.5596L23.2337 17.4249C23.2619 17.3713 23.2866 17.3244 23.3096 17.2809C23.4783 17.2017 23.531 17.1018 23.4632 16.9896C23.4073 16.9354 23.4124 16.886 23.4778 16.8465C23.5433 16.8071 23.6668 16.7789 23.836 16.7648C24.8378 16.6203 25.9963 16.5228 26.9358 16.3588C27.2304 16.328 27.5752 16.3141 27.9558 16.3175C28.324 16.3076 28.3086 16.2336 27.8849 16.1423C27.6471 16.0946 27.4047 16.0489 27.1586 16.0053C26.0735 15.998 25.6314 16.2168 24.3931 16.1559L23.8191 15.8676C23.6639 15.8631 23.5133 15.8614 23.3682 15.8623L21.2918 15.9795C21.1189 15.9854 20.9842 16.0054 20.9032 16.0373C20.8222 16.0692 20.7981 16.1118 20.8335 16.1601C20.8476 16.2192 20.819 16.2734 20.7488 16.3208C20.7035 16.354 20.7325 16.3981 20.8293 16.4434C21.0476 16.5457 20.7675 16.5606 20.5906 16.5863C20.5454 16.5888 20.4933 16.5885 20.4372 16.5855C20.3812 16.5825 20.3224 16.5767 20.2642 16.5686C20.206 16.5605 20.1496 16.5502 20.0982 16.5383C20.0469 16.5264 20.0016 16.5131 19.965 16.4992C19.6533 16.402 19.3808 16.2993 19.0744 16.192C19.2919 16.0893 19.036 15.9207 19.3754 15.8278C19.4133 15.8092 19.4285 15.7866 19.42 15.7613C19.4115 15.736 19.3795 15.7086 19.3259 15.6808C19.1877 15.6088 19.1218 15.5387 19.135 15.4774C19.1482 15.4161 19.24 15.3659 19.401 15.3318L19.4204 15.295C18.9957 15.1712 19.1083 15.0611 18.9414 14.9301L18.5328 14.8444C17.5163 14.6383 17.5145 14.6416 16.6394 14.6492C16.463 14.5708 16.6871 14.5588 16.8552 14.5499L18.2628 14.4619C19.1831 14.4031 20.1302 14.3624 21.1583 14.3401C22.1864 14.3179 23.3326 14.2438 24.3953 14.1904C24.449 14.1863 24.4901 14.1781 24.5151 14.1666C24.5401 14.1551 24.5483 14.1405 24.5391 14.1242C24.4968 14.1065 24.4416 14.0895 24.3773 14.0743C24.313 14.0591 24.2415 14.0462 24.1678 14.0366C23.8297 13.9895 23.4827 13.9592 23.1223 13.9198L22.4505 13.8515L22.2438 13.7616C22.1093 13.707 22.0174 13.6403 21.8385 13.601C21.691 13.5717 21.531 13.5495 21.375 13.5366C21.219 13.5238 21.0727 13.5207 20.9515 13.5279C20.6154 13.5458 20.3113 13.5718 19.9903 13.5954C19.6693 13.619 19.4924 13.6447 19.214 13.6563C18.6485 13.6615 18.1019 13.6754 17.5768 13.6979C17.1344 13.7512 16.7252 13.8143 16.3518 13.8869C16.1189 13.9155 15.9011 13.9499 15.5034 13.9125C15.3147 13.8786 15.152 13.8341 15.044 13.7869C14.936 13.7396 14.8898 13.6927 14.9136 13.6544C14.9349 13.6244 14.9953 13.6006 15.0891 13.5854C15.1829 13.5701 15.307 13.5639 15.4496 13.5672C15.8488 13.5617 16.218 13.5431 16.5496 13.5119C17.0113 13.4552 17.5733 13.4308 18.2028 13.4401C18.4163 13.4482 18.5594 13.4178 18.7461 13.4079C18.9329 13.3979 19.0911 13.3732 19.2993 13.3914C19.9461 13.4383 20.2562 13.3664 20.6438 13.3198C20.775 13.2991 20.8563 13.2656 20.8788 13.2231C20.9012 13.1805 20.8639 13.1306 20.771 13.0787C20.5921 12.9754 20.3732 12.8714 20.1178 12.7686C19.9864 12.718 19.818 12.67 19.6259 12.6283C19.4338 12.5866 19.2231 12.5523 19.0104 12.5282C18.8831 12.4649 18.8153 12.4027 18.8129 12.3472C18.8105 12.2916 18.8737 12.2445 18.9968 12.2101C19.3104 12.1315 19.5885 12.0516 20.2913 12.0955C20.6218 12.1123 20.9328 12.1155 21.2119 12.105C21.8311 12.0907 22.5454 12.1221 23.2873 12.1962C23.4793 12.2152 23.668 12.2281 23.8478 12.2347C25.1306 12.2802 26.3527 12.3029 27.5784 12.319C28.2277 12.3267 28.8824 12.3243 29.5602 12.3468C31.1498 12.3955 32.5968 12.3705 34.1311 12.3863C34.9347 12.3945 35.654 12.3617 36.2512 12.2896C36.3675 12.2655 36.4674 12.2373 36.5497 12.2054C36.1539 12.1217 35.7192 12.0554 35.2872 12.0129C34.8552 11.9704 34.4403 11.9531 34.0824 11.9627C33.8856 11.9861 33.6313 11.9904 33.3477 11.975C33.0642 11.9597 32.7626 11.9253 32.4766 11.8758V11.8758L33.3081 11.8477C33.8595 11.8346 34.4243 11.8306 34.9606 11.8117C35.8125 11.7794 36.6021 11.7275 37.4843 11.7066C38.1966 11.6873 38.834 11.6379 39.3765 11.5602C39.7684 11.5034 40.216 11.4632 40.7102 11.4403C41.0615 11.4281 41.0615 11.4281 41.2861 11.312C41.1079 11.2369 40.8775 11.2264 40.6605 11.2249C39.3593 11.1777 38.1211 11.1694 36.971 11.2003C36.3907 11.203 35.8759 11.2348 35.4513 11.2943C35.3473 11.3193 35.0813 11.3075 34.8678 11.2993C34.1986 11.2869 33.5589 11.2905 32.9565 11.31C32.1237 11.3426 31.1961 11.3349 30.2098 11.2872C30.0228 11.2288 30.2381 11.2336 30.2487 11.2135C31.0126 11.1761 31.7613 11.1329 32.5403 11.1012C32.7533 11.0899 32.9809 11.0843 33.2207 11.0845C34.1158 11.1041 34.8616 11.0496 35.3538 10.9285C35.3786 10.8816 35.7023 10.8872 35.8454 10.8568C35.9158 10.8304 35.9627 10.7995 35.9847 10.7647C35.7762 10.6782 35.5405 10.6778 35.3591 10.6777C34.8326 10.6873 34.326 10.7056 33.842 10.7325C33.3919 10.758 32.8938 10.7649 32.3611 10.7528C31.9679 10.7412 31.6318 10.7591 31.2351 10.7542C31.0199 10.7439 30.7971 10.7274 30.5714 10.705C30.8227 10.6447 31.1644 10.6076 31.5725 10.5963C31.8819 10.5603 32.2687 10.5495 32.3182 10.4557C32.172 10.3887 32.0092 10.3876 31.8785 10.3946C31.6064 10.3943 31.3436 10.3985 31.0914 10.4072C30.5567 10.4263 29.9778 10.4265 29.3668 10.408C29.0451 10.4011 28.7398 10.4032 28.456 10.4142C27.813 10.429 27.1968 10.4618 26.608 10.4769C25.402 10.4923 24.3021 10.5477 23.1432 10.5769C22.8853 10.5842 22.6541 10.6095 22.3142 10.5658C21.9743 10.5221 21.9592 10.5164 21.919 10.4892C21.8239 10.4439 21.7951 10.4 21.8385 10.3666C21.9059 10.3354 22.0373 10.318 22.2092 10.3176C23.2451 10.2679 24.2276 10.1982 25.1507 10.1088C25.5569 10.0909 25.9128 10.0543 26.206 10.0005C26.4385 9.96337 26.7144 9.93881 27.0249 9.92755C27.4765 9.90073 27.9472 9.88108 28.4353 9.86867C28.6624 9.86201 28.8555 9.84213 29.0032 9.81023C29.151 9.77833 29.2503 9.73504 29.2955 9.68291L28.6972 9.5098C28.6032 9.50174 28.5099 9.49476 28.4178 9.48889L23.4517 9.61359L22.9599 9.61702C22.4208 9.60669 22.2891 9.58117 21.7778 9.38064C22.9447 9.33346 23.862 9.19595 24.4383 8.98182C24.2998 8.95879 24.1578 8.93902 24.0156 8.92299C23.0831 8.87234 22.2015 8.85888 21.405 8.88313C20.9318 8.88557 20.4453 8.87896 19.957 8.87569C20.0998 8.77697 20.6469 8.80638 21.0034 8.78413C21.8554 8.7493 22.6088 8.67737 23.2396 8.57062C23.457 8.529 23.7291 8.50238 24.0433 8.492C24.3577 8.48842 24.6204 8.46323 24.8084 8.41861C24.9964 8.374 25.1041 8.31132 25.122 8.23602C25.1517 8.16784 25.2155 8.10449 25.3126 8.04691C25.1408 7.9652 24.8681 7.88696 24.5456 7.82686C24.2231 7.76676 23.873 7.72894 23.5609 7.72049C22.8948 7.68685 22.2038 7.63177 21.5057 7.55667C21.1579 7.51879 20.8169 7.49705 20.5048 7.49286C20.2296 7.48963 19.9168 7.46227 19.614 7.41495C19.3113 7.36764 19.0353 7.30295 18.8281 7.23077C18.5485 7.14155 18.2875 7.05132 18.0266 6.9611C17.7656 6.87088 17.4628 6.75686 17.1582 6.64619C16.8896 6.62888 16.6281 6.61776 16.3771 6.61297C16.1819 6.61703 15.9541 6.60496 15.7206 6.57819C15.4871 6.55143 15.2576 6.51108 15.0593 6.46192V6.46192C15.1756 6.41342 15.3071 6.37062 15.4456 6.31443C15.2555 6.24023 15.1176 6.16456 15.0404 6.09203C14.9632 6.0195 14.9483 5.95163 14.9966 5.89257C15.0249 5.839 14.8182 5.74914 14.7467 5.6781C14.6548 5.61687 14.6375 5.55972 14.6972 5.51415C14.7568 5.46858 14.8907 5.43673 15.0811 5.42275C15.3173 5.39697 15.5095 5.35813 15.6499 5.30784C15.6963 5.29479 15.72 5.27691 15.7186 5.25584C15.7173 5.23478 15.6911 5.21119 15.6423 5.18725C15.5936 5.16331 15.5238 5.13976 15.4395 5.11878C15.3553 5.0978 15.2591 5.08004 15.1598 5.06714C14.8556 5.03055 14.5536 5.00683 14.2709 4.99735C13.7841 4.97991 13.318 4.96895 12.8726 4.96448C12.3801 4.95775 11.8322 4.91622 11.2845 4.8441C10.7942 4.77587 10.3546 4.71469 10.1148 4.58429C9.87504 4.45389 9.4917 4.45805 9.19693 4.36312C9.36251 4.27755 9.65682 4.2181 10.0501 4.19076C10.3075 4.181 10.5224 4.15539 10.6809 4.11556C10.8394 4.07573 10.9381 4.02257 10.9707 3.95949L10.0758 3.69479C9.3611 3.57018 8.96568 3.66609 8.19345 3.61613L8.98913 3.51841C9.00511 3.50876 9.01109 3.49741 9.00679 3.48493C8.92953 3.28731 8.80662 3.24504 7.99326 3.13545L7.53675 3.07192L6.81422 2.99653C6.6985 2.95603 6.61848 2.91379 6.58211 2.87404C6.54575 2.83429 6.55432 2.79843 6.60701 2.77004C6.71286 2.72228 6.74505 2.66126 6.7006 2.59259C6.63052 2.5471 6.62475 2.50516 6.68425 2.47406C6.74376 2.44295 6.8648 2.42463 7.02638 2.4223C7.15533 2.41868 7.1649 2.3661 7.23505 2.33633C7.30476 2.2953 7.42406 2.26382 7.58483 2.24402C7.7456 2.22423 7.94404 2.21658 8.16671 2.22161C8.82319 2.22571 9.4399 2.21031 10.0059 2.17567L9.90443 2.16156C10.4944 2.19196 11.0459 2.19565 11.5321 2.17244C12.0194 2.14322 12.6448 2.16196 13.1624 2.14415C13.5837 2.14824 13.9045 2.1078 14.0567 2.03141C14.2041 1.95848 14.7396 1.9755 15.1496 1.98945C15.3926 1.99846 15.6273 2.00228 15.8515 2.00086C16.1523 1.98436 16.5285 1.99992 16.9172 2.04495C17.0338 2.05879 17.1487 2.06612 17.2508 2.06622C18.239 2.08515 19.2255 2.10742 20.2003 2.1173C20.4254 2.11161 20.6892 2.12464 20.9609 2.15487C21.0752 2.16799 21.1863 2.17343 21.2795 2.17044C22.8198 2.14043 24.5581 2.21701 26.0682 2.17559C26.2512 2.16581 26.4538 2.16378 26.6703 2.16954C27.1568 2.19387 27.5792 2.17821 27.8735 2.12495C28.0323 2.09662 28.2359 2.08101 28.4713 2.07911C28.7066 2.07721 28.9686 2.08907 29.2406 2.11393C29.6931 2.14685 30.1113 2.15042 30.4511 2.12427C31.1136 2.1001 31.8104 2.09017 32.5358 2.09454C32.7581 2.09877 32.9535 2.08937 33.1069 2.06709C33.2603 2.04481 33.3675 2.01024 33.4203 1.96605C33.2421 1.89095 33.0473 1.88181 32.8623 1.88841C32.1454 1.87129 31.4302 1.85083 30.7266 1.84277C30.0969 1.81973 29.4926 1.81268 28.9228 1.82174C28.6398 1.83196 28.2867 1.80866 27.9406 1.75693C27.5164 1.69143 27.0794 1.65888 26.7181 1.66588C26.4503 1.66762 26.1675 1.66198 25.874 1.64903C25.6861 1.63343 25.4936 1.60663 25.316 1.57139C25.2456 1.55608 25.1689 1.54321 25.0909 1.5336C25.013 1.52399 24.9354 1.51786 24.8632 1.51559C24.7909 1.51331 24.7256 1.51494 24.6714 1.52039C24.6172 1.52584 24.5753 1.53498 24.5484 1.54722C24.2766 1.64955 23.6689 1.59733 23.1486 1.58601C22.3687 1.4128 21.7884 1.51532 21.0595 1.41749C21.0019 1.411 20.9451 1.40707 20.8927 1.40595C20.8402 1.40483 20.7932 1.40654 20.7544 1.41096C19.344 1.46985 17.7002 1.42078 16.2193 1.44111C16.056 1.44408 15.8665 1.43389 15.6722 1.41169C14.4027 1.26477 13.1822 1.22306 12.2492 1.29472C12.1357 1.30117 12.0065 1.30145 11.8677 1.29553C11.2298 1.23714 10.6197 1.21386 10.0885 1.22763C9.256 1.22319 8.45553 1.22679 7.60963 1.21329C7.02652 1.19409 6.51498 1.21461 6.12625 1.2728C6.11389 1.29624 5.85495 1.27099 5.6566 1.26854C5.54252 1.20954 5.44362 1.15625 5.32602 1.10394C5.22088 1.03923 5.06339 0.973751 4.86428 0.911939C4.66516 0.850127 4.42908 0.793431 4.17195 0.745682C3.73233 0.684504 3.68836 0.595728 3.99598 0.563067C4.78887 0.455009 5.78588 0.410782 6.91373 0.433631C7.85653 0.435458 8.81627 0.439641 9.77246 0.450517C10.3302 0.459847 10.9181 0.48057 11.4607 0.484199C11.6438 0.492172 11.8318 0.503922 12.023 0.519322C12.2575 0.54165 12.4851 0.553816 12.6937 0.555167C13.3636 0.536362 14.1111 0.552744 14.9006 0.603528C15.1898 0.614603 15.4675 0.618334 15.7296 0.61467C16.3496 0.600885 17.0218 0.611029 17.7283 0.644836C18.1674 0.663898 18.5931 0.673867 19.0012 0.674632C19.1453 0.676716 19.2626 0.660702 19.4014 0.67283C20.6231 0.799716 21.4882 0.708066 22.5877 0.756858C23.1221 0.770463 23.6326 0.770501 24.1122 0.756974C25.048 0.757628 26.0099 0.771539 26.9941 0.79865C28.2955 0.843193 29.5015 0.827737 30.7441 0.846128C30.9895 0.849992 31.2263 0.849335 31.453 0.844153C32.5558 0.809925 33.7535 0.817184 35.0171 0.865752C35.304 0.872769 35.5617 0.864188 35.774 0.840556C35.9863 0.816923 36.1487 0.778744 36.251 0.728408C36.2943 0.693862 36.2663 0.648991 36.1723 0.60245C36.0164 0.543014 35.8402 0.48478 35.6469 0.428705L28.6134 0.240543C28.318 0.230717 28.0299 0.225428 27.7506 0.224696C26.9291 0.223061 26.0824 0.208423 25.2146 0.180856C24.3571 0.154961 23.538 0.159558 22.7072 0.151762C22.4625 0.14915 22.2113 0.142988 21.9547 0.133294C20.2201 0.0565649 18.5287 0.00969999 16.8924 -0.0069647C16.2039 -0.00932934 15.4602 -0.0445433 14.7584 -0.055957C14.0566 -0.0673707 13.0969 -0.0715497 12.2643 -0.0759981L9.6868 -0.0753149C9.17982 -0.0775859 8.68619 -0.0708101 8.19435 -0.0673801C7.59749 -0.312161 7.39181 -0.369536 6.59535 -0.476778C6.32287 -0.516337 6.04572 -0.539945 5.79639 -0.544836C5.00576 -0.525485 4.01372 -0.606037 3.26397 -0.595372C2.81156 -0.600632 2.42767 -0.57344 2.1516 -0.516577C1.91195 -0.471951 1.63791 -0.436639 1.33371 -0.411176C0.500389 -0.62058 0.426949 -0.756582 1.0538 -0.809507C1.22363 -0.821811 1.45756 -0.818005 1.5802 -0.844063C1.65057 -0.859933 1.7467 -0.86901 1.86094 -0.870578C1.97517 -0.872147 2.10434 -0.866167 2.23832 -0.853104C2.66119 -0.818836 3.05753 -0.810776 3.38759 -0.829736C3.69821 -0.854828 4.07896 -0.853827 4.49314 -0.826824C4.79749 -0.78447 5.065 -0.844275 5.3282 -0.861553C5.59141 -0.878832 5.80741 -0.90987 6.2185 -0.863443C6.29378 -0.854199 6.36852 -0.848648 6.43698 -0.84722C6.50544 -0.845791 6.56581 -0.848521 6.61345 -0.8552C7.05498 -0.885102 7.58187 -0.88196 8.15132 -0.846033C9.02471 -0.810678 9.84417 -0.809353 10.5813 -0.8421C11.0225 -0.870754 11.3987 -0.921568 11.6952 -0.992561C11.776 -1.0163 11.8959 -1.03054 12.0436 -1.03391C12.7853 -1.0191 13.5905 -0.963349 14.4075 -0.870264C14.7153 -0.832966 15.0227 -0.803463 15.3231 -0.782384C15.9405 -0.735559 16.5377 -0.709319 17.0969 -0.704444C17.9095 -0.703671 18.7556 -0.685654 19.6276 -0.650558C20.1657 -0.631016 20.6842 -0.623803 21.177 -0.628998C21.6835 -0.631448 22.2243 -0.616541 22.7871 -0.584626C23.3468 -0.558618 23.84 -0.573603 24.2073 -0.627767C24.3283 -0.656954 24.4257 -0.691613 24.4978 -0.731098C23.6783 -0.859579 22.8308 -0.924876 22.1258 -0.913838C21.8581 -0.922349 21.6357 -0.913757 21.3536 -0.963802L21.3448 -0.947062C21.2886 -0.9362 21.2039 -0.933637 21.1068 -0.939863C21.0097 -0.946089 20.9069 -0.960666 20.8181 -0.98082V-0.98082C20.8517 -1.04443 20.8835 -1.1047 20.9064 -1.14822C21.4435 -1.14054 21.965 -1.14117 22.4683 -1.15009C22.8925 -1.16293 23.4684 -1.05045 23.8355 -1.09279C24.5517 -1.03984 25.0077 -1.11295 25.65 -1.09185C26.2922 -1.07076 26.9996 -1.00107 27.6419 -0.979975C28.2023 -0.968399 28.7465 -0.965883 29.2713 -0.972438C29.4525 -0.981639 29.6613 -0.979481 29.8851 -0.966095C30.1996 -0.940908 30.4921 -0.936687 30.7291 -0.953919C30.9661 -0.971151 31.1379 -1.00914 31.225 -1.06353C31.143 -1.11448 31.0325 -1.18017 30.9051 -1.24822C31.1395 -1.30413 31.4956 -1.32768 31.9205 -1.31535L32.5209 -1.31805C32.68 -1.31657 32.8016 -1.33169 32.8606 -1.36027C32.9196 -1.38885 32.9114 -1.4287 32.8378 -1.4716C31.6994 -1.68752 31.6575 -1.71133 30.822 -1.57244L29.7126 -1.63698L29.7313 -1.63797ZM44.7365 -1.04483L44.652 -1.05659L44.7365 -1.04483ZM182.987 21.9283L182.968 21.9651L182.989 21.9249L183.175 21.9508L183.187 21.9274L182.987 21.9283ZM155.983 5.78615C155.72 5.74598 155.455 5.70904 155.188 5.67556C155.119 5.67037 155.053 5.6692 154.998 5.67215C154.943 5.67509 154.899 5.68206 154.871 5.69248C154.85 5.73265 154.998 5.76053 155.134 5.77935C155.304 5.80469 155.478 5.82079 155.638 5.82599C155.798 5.8312 155.938 5.82532 156.044 5.80896L156.196 5.7943L155.983 5.78615ZM20.5778 15.5782C20.7509 15.585 20.915 15.5861 21.0662 15.5815C21.7367 15.549 22.3786 15.5018 23.066 15.4717C23.9334 15.3952 24.93 15.3641 26.0186 15.3795C26.4439 15.3869 26.8032 15.3622 27.0545 15.308C27.205 15.2789 27.3992 15.2619 27.6253 15.258L30.5032 15.1698C30.6811 15.1515 30.8349 15.1258 30.961 15.0933C30.7074 15.058 30.5383 15.0345 30.4368 15.0204C30.2263 15.0164 30.0454 15.0272 29.9122 15.0516C29.7691 15.093 29.5272 15.1093 29.2346 15.0975C28.9392 15.0876 28.6511 15.0823 28.3718 15.0816C27.8444 15.0837 27.3134 15.0924 26.7842 15.0979C26.5783 15.213 25.9706 15.1607 25.4502 15.1494L25.0482 15.1546C23.7342 15.2142 22.479 15.2963 21.2887 15.4005C21.0586 15.4181 20.8604 15.4462 20.7002 15.4839C20.6398 15.5133 20.6205 15.55 20.6437 15.591L20.5592 15.5792L20.5778 15.5782ZM79.2579 26.5834C79.5768 26.5912 79.9087 26.6073 80.2489 26.6314C80.5111 26.6561 80.7669 26.671 81.0061 26.6757C82.3463 26.7015 83.743 26.7611 85.1773 26.8537C85.3648 26.8677 85.545 26.8746 85.711 26.874L86.885 26.8505C87.2549 26.8373 87.262 26.8239 86.9927 26.6463C86.7692 26.6118 86.5432 26.5804 86.3164 26.5522C86.1811 26.5334 85.9613 26.5028 85.9099 26.5315C85.5962 26.6101 85.0241 26.5592 84.5428 26.5426C83.1498 26.4996 81.7131 26.4363 80.3067 26.3843C80.0094 26.3716 79.7214 26.3652 79.4457 26.3651C79.2746 26.3624 79.1186 26.3675 78.9841 26.3799C78.9448 26.3812 78.9119 26.3849 78.8876 26.3908C78.8633 26.3968 78.8481 26.4047 78.8431 26.4142C78.8381 26.4237 78.8434 26.4345 78.8586 26.4459C78.8737 26.4574 78.8985 26.4691 78.9311 26.4804C79.0462 26.5199 79.1792 26.5578 79.3256 26.5928L79.2579 26.5834ZM89.4626 0.802084L90.8349 0.781024C90.9994 0.778765 91.139 0.755061 91.3151 0.765198C92.2548 0.797327 93.1248 0.788378 93.8882 0.738731C94.1481 0.718471 94.4522 0.714419 94.7838 0.726801C95.7989 0.763489 96.7566 0.764999 97.6309 0.731286C98.1959 0.72452 98.7247 0.701795 99.2094 0.663448C99.2467 0.654547 99.2699 0.642462 99.2776 0.628018C99.2852 0.613573 99.277 0.597109 99.2535 0.579748C99.2474 0.56878 99.2308 0.55698 99.2048 0.545165C99.1789 0.533349 99.1442 0.521793 99.1031 0.511299C99.0621 0.500806 99.0157 0.491624 98.9671 0.484381C98.9185 0.477137 98.8689 0.472002 98.8217 0.469339C98.2094 0.417434 97.6281 0.399352 97.1254 0.41656C96.6593 0.437149 96.1573 0.443174 95.6276 0.43454C95.1206 0.432269 94.7767 0.499404 94.1503 0.448177C93.8853 0.431308 93.6516 0.436862 93.4886 0.463908C93.1605 0.508736 92.7026 0.51123 92.1963 0.470944C91.8934 0.450556 91.6039 0.441813 91.3388 0.445048C90.6958 0.459786 90.0813 0.489274 89.4855 0.517768C89.2977 0.524359 89.0966 0.525269 88.8851 0.520476L85.9018 0.464682C85.1848 0.447568 84.4696 0.427105 83.766 0.419039C83.1906 0.401525 82.6552 0.407011 82.1785 0.4353C81.6702 0.465035 81.116 0.477106 80.5261 0.471287C79.61 0.487559 78.6992 0.493783 77.7022 0.491594C77.0662 0.49294 76.4152 0.488588 75.7507 0.475184C75.4145 0.457934 75.1292 0.471982 74.9495 0.514626C74.8402 0.549733 74.583 0.521132 74.3696 0.512984C73.2308 0.434456 72.1629 0.415849 71.2403 0.458459C71.1225 0.465402 70.9932 0.467916 70.8552 0.465957C69.9667 0.464494 69.046 0.454976 68.1931 0.454871C67.9685 0.458181 67.7572 0.467266 67.5617 0.482008C67.5826 0.50606 67.6423 0.53213 67.7283 0.554809C67.8144 0.577488 67.9202 0.595038 68.0238 0.603815C68.8305 0.671011 69.6095 0.706509 70.3278 0.708818C71.5237 0.700258 72.7762 0.719503 74.0726 0.766347C75.0785 0.813573 75.9956 0.80363 76.7559 0.737257C77.3502 0.687732 78.1232 0.706366 78.9423 0.789959C79.2928 0.829882 79.633 0.845846 79.9164 0.83567C80.1892 0.822318 80.5021 0.825557 80.837 0.84519C81.543 0.882523 82.222 0.899842 82.8607 0.896805C83.485 0.883061 84.0675 0.845518 84.7087 0.834127C85.3499 0.822737 86.3265 0.829264 87.1171 0.809913C87.9078 0.790562 88.6896 0.787955 89.4626 0.802084ZM32.5989 -1.15625C32.6713 -1.05273 32.9278 -0.988298 33.2036 -0.960694C34.1546 -0.838126 35.0947 -0.785969 35.8662 -0.812976C36.2829 -0.850647 36.8385 -0.836147 37.4237 -0.772321C38.1052 -0.705974 38.7421 -0.694971 39.2223 -0.741252C39.3399 -0.749338 39.43 -0.766433 39.4845 -0.791015C39.4951 -0.811103 39.5145 -0.84793 39.518 -0.854626C39.4676 -0.871608 39.4057 -0.887343 39.3372 -0.900617C39.2687 -0.913891 39.1953 -0.924349 39.1229 -0.931185L35.9729 -1.04969L35.424 -1.07576C34.4214 -1.14408 33.466 -1.1713 32.5989 -1.15625V-1.15625ZM38.7948 0.482238C39.2864 0.651279 39.2881 0.647924 39.54 0.686566C40.7551 0.847077 41.9693 0.933722 43.0382 0.936194C43.2758 0.935704 43.4774 0.919387 43.626 0.888614C43.7024 0.884443 43.7511 0.871191 43.7614 0.851749C43.7716 0.832306 43.7426 0.808249 43.6807 0.784824L43.2898 0.665736C42.5798 0.614179 41.8801 0.573213 41.1947 0.543087C40.3968 0.507511 39.6896 0.506138 38.8624 0.491645L38.7948 0.482238ZM79.199 25.8348C79.6571 26.0675 79.6589 26.0641 80.4258 26.1242C80.9602 26.1667 81.4786 26.1916 81.9657 26.1983C82.5607 26.2056 83.1709 26.2187 83.7642 26.2294C83.9091 26.2368 84.0319 26.2306 84.1088 26.2121C84.1856 26.1936 84.2111 26.164 84.1801 26.1291C84.1023 26.0912 83.9805 26.0546 83.8345 26.0252C83.6886 25.9957 83.5271 25.9752 83.3763 25.9669L83.0525 25.9614C82.6594 25.9498 82.251 25.9325 81.8712 25.93C81.6248 25.9396 81.3393 25.9322 81.0371 25.9082C80.7348 25.8842 80.4241 25.8444 80.1292 25.7918L79.199 25.8348ZM41.2409 -0.85206C41.3632 -0.811769 41.5015 -0.77318 41.6522 -0.737319C42.2357 -0.637921 42.8532 -0.581467 43.3837 -0.579025C43.6345 -0.572867 43.8639 -0.594851 44.1193 -0.562905C44.5774 -0.520215 45.0213 -0.497475 45.4271 -0.495916C45.4271 -0.495916 45.5409 -0.505237 45.5782 -0.507227L45.6559 -0.65454C45.4638 -0.688667 45.2635 -0.716547 45.0641 -0.736896C44.3951 -0.776089 43.7377 -0.802884 43.0821 -0.833028C42.4265 -0.863172 42.1978 -0.877019 41.7691 -0.889966C41.5778 -0.882849 41.4009 -0.870152 41.2409 -0.85206ZM26.7533 17.4619L27.6288 17.7634C27.9121 17.7896 28.1768 17.7943 28.3825 17.7769C28.5883 17.7595 28.7239 17.7208 28.7686 17.6669C28.8407 17.6416 28.848 17.6042 28.7888 17.5624C28.7296 17.5207 28.6086 17.4779 28.4512 17.443C28.2996 17.4016 28.1267 17.3645 27.943 17.334C27.7592 17.3035 27.5687 17.2802 27.3832 17.2656L26.7533 17.4619ZM34.0426 15.9606C33.47 15.9095 32.9223 15.8886 32.4414 15.8995C32.1385 15.9294 31.7279 15.9199 31.294 15.8728C30.5049 15.779 29.7442 15.753 29.1724 15.8004C29.1724 15.8004 29.1512 15.8405 29.0543 15.8522C28.9574 15.8639 29.3417 15.8922 29.4263 15.904C30.0463 15.9328 30.6699 15.9549 31.2089 15.9652C31.5436 15.9647 31.8976 15.9742 32.2648 15.9935C32.77 16.0233 33.2492 16.0329 33.6836 16.0221C33.6836 16.0221 33.8516 16.0131 34.0409 15.964L34.0426 15.9606ZM95.1955 0.255815C94.922 0.19903 94.6254 0.152878 94.328 0.120824C94.0306 0.088771 93.7401 0.071649 93.4782 0.0707375C93.2777 0.0677745 93.1154 0.0827672 93.0171 0.113346C92.9188 0.143924 92.8901 0.188344 92.9354 0.239579C93.1383 0.267815 93.4088 0.305462 93.561 0.326639C94.0884 0.324566 94.5384 0.297338 95.1955 0.255815ZM146.394 5.04109C146.174 4.99538 145.933 4.96043 145.696 4.94023C145.46 4.92003 145.238 4.9154 145.057 4.92687C144.963 4.93185 145.027 4.98379 145.011 5.01392C145 5.02075 145 5.02925 145.011 5.03852C145.022 5.04779 145.042 5.0575 145.071 5.06663C145.099 5.07575 145.135 5.08395 145.174 5.09038C145.212 5.0968 145.252 5.10121 145.29 5.10315C145.528 5.12284 145.753 5.1287 145.944 5.12021C146.136 5.11172 146.288 5.08914 146.387 5.05448L146.394 5.04109ZM149.824 5.69456C149.79 5.66759 149.718 5.63948 149.621 5.61537C149.523 5.59127 149.408 5.5728 149.294 5.56335C149.095 5.56208 148.913 5.56956 148.756 5.58551C148.587 5.59781 148.709 5.67591 148.938 5.72224C149.036 5.74084 149.14 5.75534 149.242 5.76461C149.344 5.77387 149.442 5.77763 149.528 5.77559C149.613 5.77356 149.684 5.76578 149.735 5.75287C149.786 5.73997 149.815 5.72229 149.821 5.70126L149.824 5.69456ZM50.1461 -0.565151C49.6343 -0.66153 49.2404 -0.637284 48.8071 -0.67602C48.3738 -0.714757 48.267 -0.718832 48.3251 -0.656847C48.3831 -0.594861 48.6802 -0.607432 48.8662 -0.581549C49.1175 -0.547205 49.3703 -0.527484 49.5963 -0.524587C49.8224 -0.521691 50.0127 -0.535735 50.1461 -0.565151V-0.565151ZM156.793 15.7423C156.522 15.7207 156.257 15.7054 156.001 15.6967C155.967 15.7057 155.946 15.7174 155.939 15.7312C155.931 15.745 155.938 15.7606 155.958 15.7771C155.958 15.7771 156.132 15.8264 156.233 15.8405C156.607 15.8889 156.626 15.8196 156.793 15.7423V15.7423ZM195.107 24.7219C195.291 24.7869 195.376 24.8312 195.523 24.8624C195.591 24.8732 195.661 24.8811 195.727 24.8854C195.794 24.8898 195.856 24.8904 195.909 24.8874C195.974 24.8686 195.989 24.8399 195.952 24.807C195.952 24.807 195.765 24.7487 195.694 24.7459C195.491 24.7322 195.294 24.7241 195.107 24.7219V24.7219ZM41.4347 -1.11619C41.0458 -1.17031 40.6738 -1.22208 40.4045 -1.15893C41.022 -1.09096 41.0221 -1.09095 41.4347 -1.11619ZM47.7333 -0.498412C47.3407 -0.614154 47.1102 -0.624657 46.9217 -0.611358C46.8817 -0.608009 46.8552 -0.600543 46.8462 -0.590095C46.8373 -0.579648 46.8464 -0.566785 46.8721 -0.553451C46.8979 -0.540118 46.939 -0.527042 46.9891 -0.516199C47.0392 -0.505356 47.0956 -0.497337 47.1499 -0.493356C47.3547 -0.490025 47.55 -0.491716 47.7333 -0.498412V-0.498412ZM67.9441 -0.449471C67.9529 -0.466211 67.9635 -0.486299 67.8621 -0.500417C67.8355 -0.507584 67.8044 -0.513747 67.7717 -0.51829C67.7391 -0.522834 67.7061 -0.525594 67.6761 -0.526296C67.6761 -0.526296 67.6655 -0.506207 67.6585 -0.492815L67.9441 -0.449471ZM81.979 27.343L81.7531 27.3583L81.8546 27.3724L82.1223 27.3809L81.979 27.343ZM161.505 5.43335C161.42 5.42158 161.336 5.40982 161.324 5.43325C161.306 5.43688 161.295 5.44212 161.291 5.44853C161.288 5.45493 161.292 5.46232 161.304 5.47008C161.304 5.47008 161.422 5.48655 161.473 5.49361L161.505 5.43335ZM148.339 5.62079C148.283 5.61944 148.233 5.62102 148.191 5.6254C148.191 5.6254 148.18 5.64549 148.18 5.64549L148.349 5.66902L148.339 5.62079ZM33.5961 10.4072C33.5308 10.395 33.4616 10.3853 33.3932 10.3789L33.3086 10.3672C33.3086 10.3672 33.3995 10.4014 33.4502 10.4084C33.5009 10.4155 33.5418 10.4068 33.5961 10.4072Z" fill="white"/>
</g>
</svg>
