<svg width="18" height="22" viewBox="0 0 18 22" fill="none" xmlns="http://www.w3.org/2000/svg">
<path d="M9 4.625C8.18415 4.625 7.38663 4.86693 6.70827 5.32019C6.02992 5.77345 5.50121 6.41769 5.189 7.17143C4.87679 7.92518 4.7951 8.75458 4.95426 9.55475C5.11343 10.3549 5.50629 11.0899 6.08318 11.6668C6.66008 12.2437 7.39508 12.6366 8.19525 12.7957C8.99542 12.9549 9.82482 12.8732 10.5786 12.561C11.3323 12.2488 11.9766 11.7201 12.4298 11.0417C12.8831 10.3634 13.125 9.56585 13.125 8.75C13.1238 7.65636 12.6888 6.60787 11.9154 5.83455C11.1421 5.06124 10.0936 4.62624 9 4.625ZM9 10.625C8.62916 10.625 8.26665 10.515 7.95831 10.309C7.64996 10.103 7.40964 9.81014 7.26773 9.46753C7.12581 9.12492 7.08868 8.74792 7.16103 8.3842C7.23337 8.02049 7.41195 7.6864 7.67417 7.42417C7.9364 7.16195 8.27049 6.98337 8.6342 6.91103C8.99792 6.83868 9.37492 6.87581 9.71753 7.01772C10.0601 7.15964 10.353 7.39996 10.559 7.70831C10.765 8.01665 10.875 8.37916 10.875 8.75C10.8745 9.24711 10.6767 9.72371 10.3252 10.0752C9.97371 10.4267 9.49711 10.6245 9 10.625ZM9 0.125C6.7133 0.127581 4.521 1.03711 2.90405 2.65405C1.28711 4.271 0.377581 6.4633 0.375 8.75C0.375 16.0023 8.02894 21.4436 8.35481 21.6717C8.54392 21.804 8.76917 21.875 9 21.875C9.23083 21.875 9.45608 21.804 9.64519 21.6717C11.0943 20.6045 12.4204 19.3796 13.5989 18.0194C16.2328 14.9905 17.625 11.7852 17.625 8.75C17.6224 6.4633 16.7129 4.271 15.0959 2.65405C13.479 1.03711 11.2867 0.127581 9 0.125ZM11.9346 16.5044C11.0407 17.531 10.0588 18.4775 9 19.3331C7.94123 18.4775 6.9593 17.5311 6.06544 16.5044C4.49587 14.6906 2.625 11.8728 2.625 8.75C2.625 7.05924 3.29665 5.43774 4.49219 4.24219C5.68774 3.04665 7.30925 2.375 9 2.375C10.6908 2.375 12.3123 3.04665 13.5078 4.24219C14.7034 5.43774 15.375 7.05924 15.375 8.75C15.375 11.8728 13.5041 14.6906 11.9346 16.5044Z" fill="#2D3134"/>
</svg>
