<svg width="22" height="16" viewBox="0 0 22 16" fill="none" xmlns="http://www.w3.org/2000/svg">
<path d="M21.1236 1.22253C21.1231 1.20216 21.1221 1.18184 21.1205 1.16159C21.1192 1.14422 21.1175 1.12697 21.1153 1.10984C21.1107 1.07294 21.1042 1.03627 21.0961 0.999969C21.0879 0.964188 21.078 0.928806 21.0665 0.893937C21.0608 0.876594 21.0543 0.859531 21.0477 0.842375C21.0347 0.808157 21.0197 0.774699 21.0029 0.742156C20.9946 0.725844 20.9861 0.709625 20.9771 0.693781C20.968 0.678023 20.9586 0.662487 20.9487 0.647187C20.9185 0.599283 20.8844 0.553831 20.847 0.51125C20.8408 0.504125 20.8356 0.496719 20.8292 0.489781C20.824 0.483969 20.818 0.479 20.8125 0.473281C20.7988 0.459031 20.7847 0.445156 20.7703 0.431656C20.7571 0.419187 20.7439 0.406906 20.7302 0.395187C20.7166 0.383697 20.7027 0.372537 20.6886 0.361719C20.6734 0.349755 20.6579 0.338188 20.6421 0.327031C20.6283 0.317375 20.6141 0.308469 20.5999 0.299469C20.5834 0.288799 20.5666 0.278577 20.5495 0.268813C20.5345 0.260375 20.519 0.252875 20.5036 0.245094C20.4867 0.236656 20.4699 0.228125 20.4526 0.220531C20.4358 0.213125 20.4186 0.206656 20.4013 0.2C20.3848 0.193719 20.3683 0.187344 20.3517 0.181812C20.3334 0.175812 20.3148 0.170844 20.2963 0.165781C20.2795 0.161188 20.263 0.156594 20.2461 0.152844C20.2276 0.148884 20.209 0.145383 20.1903 0.142344C20.1724 0.139118 20.1543 0.136336 20.1362 0.134C20.1186 0.131987 20.1009 0.130393 20.0833 0.129219C20.0632 0.127649 20.0432 0.126618 20.0232 0.126125C20.0154 0.126031 20.0078 0.125 20 0.125H2C1.99213 0.125 1.98462 0.125938 1.97684 0.126125C1.95669 0.126594 1.93663 0.127719 1.91656 0.129219C1.89897 0.130406 1.8814 0.132 1.86388 0.134C1.84559 0.13625 1.8275 0.13925 1.80931 0.142438C1.79084 0.145531 1.77228 0.148719 1.754 0.15275C1.73703 0.156594 1.72016 0.161188 1.70319 0.165875C1.68491 0.170938 1.66663 0.175812 1.64872 0.181719C1.63156 0.187344 1.61478 0.193906 1.59791 0.200281C1.58103 0.206844 1.56416 0.213125 1.54766 0.220344C1.53012 0.228125 1.51297 0.23675 1.49572 0.245375C1.48063 0.252969 1.46544 0.260375 1.45072 0.268625C1.43347 0.278375 1.41659 0.288969 1.39972 0.29975C1.38566 0.308562 1.37159 0.317375 1.358 0.326937C1.34206 0.337906 1.32669 0.349813 1.31122 0.361813C1.29716 0.372688 1.28328 0.383563 1.26987 0.395094C1.25614 0.406947 1.2427 0.419138 1.22956 0.431656C1.21522 0.44525 1.20106 0.459031 1.18747 0.473281C1.18203 0.478906 1.17603 0.483969 1.17069 0.489781C1.16441 0.496719 1.15916 0.504125 1.15297 0.511156C1.12822 0.539527 1.10488 0.569093 1.08303 0.59975C1.07197 0.615312 1.06147 0.631156 1.05116 0.647187C1.04141 0.662562 1.03194 0.678031 1.02294 0.693781C1.01384 0.709625 1.00541 0.725844 0.997156 0.742156C0.988719 0.758656 0.980656 0.775156 0.973156 0.791844C0.965789 0.808507 0.958849 0.825357 0.952344 0.842375C0.945688 0.859438 0.939219 0.876594 0.933406 0.893937C0.927687 0.911281 0.922531 0.928813 0.917563 0.946438C0.912594 0.96425 0.907906 0.982063 0.903875 0.999875C0.895747 1.03621 0.889333 1.07291 0.884656 1.10984C0.882531 1.12697 0.880813 1.14419 0.8795 1.1615C0.877875 1.18181 0.876844 1.20213 0.876406 1.22244C0.876219 1.23181 0.875 1.24072 0.875 1.25V14C0.875571 14.4971 1.0733 14.9737 1.42481 15.3252C1.77631 15.6767 2.25289 15.8744 2.75 15.875H19.25C19.7471 15.8744 20.2237 15.6767 20.5752 15.3252C20.9267 14.9737 21.1244 14.4971 21.125 14V1.25C21.125 1.24063 21.1238 1.23172 21.1236 1.22253ZM17.1079 2.375L11 7.97384L4.89219 2.375H17.1079ZM3.125 13.625V3.80731L10.2399 10.3293C10.4473 10.5195 10.7186 10.625 11 10.625C11.2814 10.625 11.5527 10.5195 11.7601 10.3293L18.875 3.80731V13.625H3.125Z" fill="#2D3134"/>
</svg>
