<svg xmlns="http://www.w3.org/2000/svg" xmlns:xlink="http://www.w3.org/1999/xlink" width="0" height="0">
<symbol id="google-gray" width="20" height="20" viewBox="0 0 20 20">
<path d="M9.99 11.9V8.18H19.35C19.49 8.81 19.6 9.4 19.6 10.23C19.6 15.94 15.77 20 10 20C4.48 20 0 15.52 0 10C0 4.48 4.48 0 10 0C12.7 0 14.96 0.99 16.69 2.61L13.85 5.37C13.13 4.69 11.87 3.89 10 3.89C6.69 3.89 3.99 6.64 3.99 10.01C3.99 13.38 6.69 16.13 10 16.13C13.83 16.13 15.24 13.48 15.5 11.91H9.99V11.9Z"/>
</symbol>

<symbol id="facebook" width="20" height="20" viewBox="0 0 20 20" >
<path d="M20 10.0251C20 4.49123 15.52 0 10 0C4.48 0 0 4.49123 0 10.0251C0 14.8772 3.44 18.9173 8 19.8496V13.0326H6V10.0251H8V7.5188C8 5.58396 9.57 4.01003 11.5 4.01003H14V7.01754H12C11.45 7.01754 11 7.46867 11 8.02005V10.0251H14V13.0326H11V20C16.05 19.4987 20 15.2281 20 10.0251Z"/>
</symbol>

<symbol id="tripadvisor" width="24" height="16" viewBox="0 0 24 16">
<path d="M12.006 0.294923C9.336 0.294923 6.668 1.07892 4.361 2.64792H0L1.963 4.78292C1.06861 5.5978 0.441617 6.66416 0.1644 7.84192C-0.112816 9.01968 -0.0272945 10.2537 0.409731 11.382C0.846756 12.5103 1.61484 13.4799 2.61309 14.1637C3.61134 14.8474 4.79306 15.2131 6.003 15.2129C7.51482 15.2142 8.97095 14.6425 10.078 13.6129L12 15.7049L13.922 13.6149C15.0284 14.6434 16.4834 15.2144 17.994 15.2129C19.585 15.2129 21.1108 14.5811 22.2359 13.4563C23.3611 12.3315 23.9935 10.8059 23.994 9.21492C23.9949 8.38055 23.8213 7.55521 23.4843 6.79193C23.1472 6.02866 22.6543 5.34433 22.037 4.78292L24 2.64792H19.65C17.3962 1.11364 14.7325 0.293704 12.006 0.294923ZM12 2.25492C13.531 2.25492 15.063 2.55792 16.504 3.15792C13.943 4.13792 12 6.42992 12 9.09992C12 6.42892 10.058 4.13792 7.496 3.15792C8.92314 2.56311 10.4539 2.25556 12 2.25492ZM6.002 5.15692C6.53504 5.15692 7.06285 5.26191 7.55531 5.4659C8.04777 5.66988 8.49523 5.96886 8.87215 6.34578C9.24906 6.72269 9.54804 7.17015 9.75203 7.66261C9.95601 8.15507 10.061 8.68289 10.061 9.21592C10.061 9.74896 9.95601 10.2768 9.75203 10.7692C9.54804 11.2617 9.24906 11.7092 8.87215 12.0861C8.49523 12.463 8.04777 12.762 7.55531 12.9659C7.06285 13.1699 6.53504 13.2749 6.002 13.2749C4.92549 13.2749 3.89306 12.8473 3.13185 12.0861C2.37064 11.3249 1.943 10.2924 1.943 9.21592C1.943 8.13941 2.37064 7.10699 3.13185 6.34578C3.89306 5.58457 4.92549 5.15692 6.002 5.15692ZM17.994 5.15892C18.5268 5.15873 19.0545 5.26348 19.5469 5.46721C20.0392 5.67093 20.4866 5.96964 20.8635 6.34628C21.2404 6.72291 21.5395 7.1701 21.7436 7.6623C21.9477 8.1545 22.0528 8.68208 22.053 9.21492C22.0532 9.74776 21.9484 10.2754 21.7447 10.7678C21.541 11.2601 21.2423 11.7075 20.8656 12.0844C20.489 12.4614 20.0418 12.7604 19.5496 12.9645C19.0574 13.1686 18.5298 13.2737 17.997 13.2739C16.9209 13.2743 15.8887 12.8472 15.1275 12.0866C14.3663 11.3259 13.9384 10.294 13.938 9.21792C13.9376 8.14181 14.3647 7.10961 15.1254 6.3484C15.886 5.58719 16.9179 5.15932 17.994 5.15892ZM6.002 7.08892C5.43762 7.08892 4.89635 7.31312 4.49728 7.7122C4.0982 8.11128 3.874 8.65254 3.874 9.21692C3.874 9.7813 4.0982 10.3226 4.49728 10.7216C4.89635 11.1207 5.43762 11.3449 6.002 11.3449C6.56638 11.3449 7.10765 11.1207 7.50672 10.7216C7.9058 10.3226 8.13 9.7813 8.13 9.21692C8.13 8.65254 7.9058 8.11128 7.50672 7.7122C7.10765 7.31312 6.56638 7.08892 6.002 7.08892ZM17.994 7.08892C17.4296 7.08892 16.8884 7.31312 16.4893 7.7122C16.0902 8.11128 15.866 8.65254 15.866 9.21692C15.866 9.7813 16.0902 10.3226 16.4893 10.7216C16.8884 11.1207 17.4296 11.3449 17.994 11.3449C18.5584 11.3449 19.0996 11.1207 19.4987 10.7216C19.8978 10.3226 20.122 9.7813 20.122 9.21692C20.122 8.65254 19.8978 8.11128 19.4987 7.7122C19.0996 7.31312 18.5584 7.08892 17.994 7.08892Z"/>
</symbol>

</svg>
