<svg width="24" height="22" viewBox="0 0 24 22" fill="none" xmlns="http://www.w3.org/2000/svg">
<path d="M18.4688 21.5002C18.3109 21.5008 18.1569 21.4516 18.0286 21.3596L12 16.989L5.97142 21.3596C5.84262 21.453 5.68745 21.5031 5.52835 21.5025C5.36924 21.5019 5.21444 21.4507 5.08632 21.3564C4.95821 21.262 4.86342 21.1294 4.81566 20.9776C4.7679 20.8258 4.76964 20.6628 4.82064 20.5121L7.17189 13.5479L1.07814 9.36898C0.946143 9.27856 0.846521 9.1483 0.793828 8.99724C0.741134 8.84617 0.73813 8.68221 0.785256 8.52932C0.832381 8.37642 0.927165 8.2426 1.05576 8.14741C1.18435 8.05222 1.34002 8.00065 1.50001 8.00023H9.01783L11.2866 1.0182C11.3354 0.867456 11.4308 0.736071 11.559 0.642887C11.6872 0.549704 11.8415 0.499512 12 0.499512C12.1585 0.499512 12.3129 0.549704 12.441 0.642887C12.5692 0.736071 12.6646 0.867456 12.7135 1.0182L14.9822 8.00257H22.5C22.6602 8.00249 22.8162 8.05371 22.9452 8.14871C23.0742 8.24372 23.1693 8.37753 23.2168 8.53054C23.2642 8.68355 23.2614 8.84773 23.2087 8.99903C23.1561 9.15032 23.0564 9.28079 22.9242 9.37132L16.8281 13.5479L19.178 20.5102C19.2161 20.6229 19.2268 20.7431 19.2092 20.8608C19.1917 20.9785 19.1464 21.0903 19.0771 21.187C19.0078 21.2837 18.9165 21.3626 18.8107 21.417C18.705 21.4715 18.5877 21.5 18.4688 21.5002Z" fill="#FFC107"/>
</svg>
