<svg width="14" height="14" viewBox="0 0 14 14" fill="none" xmlns="http://www.w3.org/2000/svg">
<path d="M8.46858 13.9993H8.49983C8.65427 14.0002 8.80542 13.9546 8.9336 13.8684C9.06178 13.7823 9.16108 13.6595 9.21858 13.5162L9.19666 13.5079L9.19674 13.5077C9.14097 13.6466 9.04474 13.7655 8.92052 13.849C8.79624 13.9325 8.64971 13.9767 8.49996 13.9759H8.49983H8.4691M8.46858 13.9993L8.46963 13.9759C8.46945 13.9759 8.46928 13.9759 8.4691 13.9759M8.46858 13.9993V13.9759H8.4691M8.46858 13.9993C8.16264 13.9855 7.90952 13.7812 7.80952 13.4915C7.80733 13.4855 7.80545 13.4799 7.80358 13.4737L5.97077 9.18055M8.4691 13.9759C8.17379 13.9624 7.92874 13.765 7.83168 13.4838L7.83151 13.4834C7.82949 13.4779 7.82777 13.4727 7.82603 13.4669L7.82617 13.4669L7.82513 13.4645L5.99283 9.17253M13.7645 0.236151C13.8636 0.335619 13.9317 0.461664 13.9607 0.599041C13.9896 0.736418 13.9781 0.879243 13.9276 1.01024L13.9276 1.01038L9.19683 13.5074L6.10012 8.71088L12.5164 1.82837C12.5165 1.82827 12.5166 1.82817 12.5167 1.82808C12.5393 1.80544 12.5572 1.7786 12.5694 1.74908C12.5817 1.71943 12.588 1.68764 12.588 1.65555C12.588 1.62345 12.5817 1.59167 12.5694 1.56202C12.5571 1.53236 12.5391 1.50542 12.5164 1.48272C12.4937 1.46003 12.4668 1.44203 12.4371 1.42974C12.4075 1.41746 12.3757 1.41114 12.3436 1.41114C12.3115 1.41114 12.2797 1.41746 12.25 1.42974C12.2205 1.44197 12.1937 1.45987 12.1711 1.48242C12.171 1.48252 12.1709 1.48262 12.1708 1.48272L5.28512 7.89869C5.22406 7.95544 5.14919 7.99518 5.06797 8.01394C4.98716 8.03261 4.90288 8.02987 4.82347 8.00599L0.534033 6.17431L0.534076 6.1742L0.531912 6.17352L0.519453 6.16957C0.519391 6.16955 0.519329 6.16953 0.519268 6.16951C0.377472 6.12202 0.25378 6.03194 0.165074 5.91155C0.0763296 5.79111 0.0269276 5.64621 0.0236156 5.49664C0.0203037 5.34707 0.0632432 5.20013 0.14657 5.07588C0.228717 4.95338 0.346169 4.85884 0.483266 4.80473V4.80561L0.491562 4.80247L12.9925 0.0709052L12.9925 0.070892C13.1235 0.0211027 13.266 0.0102155 13.4029 0.0395412C13.5399 0.0688635 13.6654 0.137139 13.7645 0.236151ZM13.7645 0.236151C13.7645 0.236162 13.7645 0.236173 13.7645 0.236185L13.7811 0.21961L13.7645 0.236151ZM5.99283 9.17253C5.99295 9.17294 5.99307 9.17334 5.99319 9.17374L5.97077 9.18055M5.99283 9.17253C5.96895 9.09312 5.9662 9.00885 5.98487 8.92804C6.00363 8.84683 6.04336 8.77196 6.1001 8.71091L5.96204 8.92276C5.94235 9.00797 5.94536 9.09686 5.97077 9.18055M5.99283 9.17253L5.99232 9.17135L5.97077 9.18055" fill="#F8FDFF" stroke="#F8FDFF" stroke-width="0.046875"/>
</svg>
