<svg width="21" height="21" viewBox="0 0 21 21" fill="none" xmlns="http://www.w3.org/2000/svg">
<path d="M14.5 20.3752C6.84934 20.3752 0.625 14.1509 0.625 6.50021C0.626473 5.13182 1.12605 3.81077 2.03041 2.78383C2.93478 1.75689 4.18206 1.0943 5.53928 0.919831C5.94235 0.871135 6.35035 0.954164 6.70232 1.15651C7.0543 1.35886 7.33136 1.66967 7.49209 2.04249L9.37553 6.4373C9.4977 6.72145 9.54753 7.03145 9.52055 7.33956C9.49357 7.64768 9.39063 7.9443 9.22094 8.20289L7.78037 10.4041C8.42191 11.6114 9.41225 12.5974 10.6223 13.2336L12.7877 11.7897C13.047 11.6161 13.3456 11.5102 13.6563 11.4817C13.967 11.4531 14.2799 11.5028 14.5665 11.6262L18.9576 13.5081C19.3306 13.6687 19.6415 13.9457 19.8439 14.2977C20.0463 14.6497 20.1292 15.0578 20.0804 15.4609C19.9059 16.8181 19.2433 18.0654 18.2164 18.9698C17.1894 19.8742 15.8684 20.3737 14.5 20.3752ZM5.54012 3.19974C4.78584 3.36294 4.11012 3.77936 3.62528 4.37978C3.14044 4.9802 2.87568 5.72847 2.875 6.50021C2.87847 9.58228 4.10436 12.5371 6.28372 14.7165C8.46308 16.8958 11.4179 18.1217 14.5 18.1252C15.2717 18.1245 16.02 17.8597 16.6204 17.3749C17.2208 16.89 17.6372 16.2143 17.8005 15.4601L13.867 13.7744L11.689 15.2266C11.419 15.4069 11.1068 15.5139 10.783 15.5372C10.4592 15.5604 10.1349 15.4992 9.84184 15.3594C8.02165 14.4773 6.54906 13.0115 5.65872 11.1953C5.5183 10.904 5.45556 10.5814 5.47659 10.2588C5.49761 9.9361 5.60169 9.62435 5.77872 9.35377L7.22837 7.13883L5.54012 3.19974Z" fill="#2D3134"/>
</svg>
