<svg width="186" height="28" viewBox="0 0 186 28" fill="none" xmlns="http://www.w3.org/2000/svg">
<path d="M176.942 27.04C175.726 27.04 174.585 26.8267 173.518 26.4C172.473 25.9733 171.566 25.3867 170.798 24.64C170.03 23.8933 169.422 22.9973 168.974 21.952C168.526 20.9067 168.302 19.7653 168.302 18.528C168.302 17.2907 168.526 16.16 168.974 15.136C169.422 14.0907 170.03 13.1947 170.798 12.448C171.566 11.7013 172.473 11.1253 173.518 10.72C174.585 10.2933 175.726 10.08 176.942 10.08C178.158 10.08 179.289 10.2933 180.334 10.72C181.379 11.1253 182.286 11.7013 183.054 12.448C183.843 13.1947 184.451 14.0907 184.878 15.136C185.326 16.16 185.55 17.2907 185.55 18.528C185.55 19.744 185.326 20.8747 184.878 21.92C184.451 22.9653 183.843 23.872 183.054 24.64C182.286 25.3867 181.379 25.9733 180.334 26.4C179.289 26.8267 178.158 27.04 176.942 27.04ZM173.454 18.528C173.454 20.5333 173.742 22.112 174.318 23.264C174.915 24.3947 175.79 24.96 176.942 24.96C178.094 24.96 178.958 24.3947 179.534 23.264C180.131 22.112 180.43 20.5333 180.43 18.528C180.43 16.544 180.131 14.9867 179.534 13.856C178.958 12.7253 178.094 12.16 176.942 12.16C175.79 12.16 174.915 12.7253 174.318 13.856C173.742 14.9867 173.454 16.544 173.454 18.528Z" fill="#80A5B3"/>
<path d="M157.247 27.04C156.031 27.04 154.89 26.8267 153.823 26.4C152.778 25.9733 151.871 25.3867 151.103 24.64C150.335 23.8933 149.727 22.9973 149.279 21.952C148.831 20.9067 148.607 19.7653 148.607 18.528C148.607 17.2907 148.831 16.16 149.279 15.136C149.727 14.0907 150.335 13.1947 151.103 12.448C151.871 11.7013 152.778 11.1253 153.823 10.72C154.89 10.2933 156.031 10.08 157.247 10.08C158.463 10.08 159.594 10.2933 160.639 10.72C161.684 11.1253 162.591 11.7013 163.359 12.448C164.148 13.1947 164.756 14.0907 165.183 15.136C165.631 16.16 165.855 17.2907 165.855 18.528C165.855 19.744 165.631 20.8747 165.183 21.92C164.756 22.9653 164.148 23.872 163.359 24.64C162.591 25.3867 161.684 25.9733 160.639 26.4C159.594 26.8267 158.463 27.04 157.247 27.04ZM153.759 18.528C153.759 20.5333 154.047 22.112 154.623 23.264C155.22 24.3947 156.095 24.96 157.247 24.96C158.399 24.96 159.263 24.3947 159.839 23.264C160.436 22.112 160.735 20.5333 160.735 18.528C160.735 16.544 160.436 14.9867 159.839 13.856C159.263 12.7253 158.399 12.16 157.247 12.16C156.095 12.16 155.22 12.7253 154.623 13.856C154.047 14.9867 153.759 16.544 153.759 18.528Z" fill="#80A5B3"/>
<path d="M126.41 26.56V24.864L129.13 24.224V13.472H126.41V11.776L131.53 10.56H134.058V12.128C135.359 10.7627 136.97 10.08 138.89 10.08C139.722 10.08 140.468 10.208 141.13 10.464C141.812 10.6987 142.378 11.04 142.826 11.488C143.295 11.936 143.658 12.4693 143.914 13.088C144.17 13.7067 144.298 14.3787 144.298 15.104V24.224L147.018 24.864V26.56H137.29V24.864L139.37 24.224V16C139.37 15.3387 139.327 14.8053 139.242 14.4C139.178 13.9947 139.06 13.6853 138.89 13.472C138.719 13.2373 138.484 13.088 138.186 13.024C137.908 12.9387 137.556 12.896 137.13 12.896C136.319 12.896 135.295 13.3653 134.058 14.304V24.224L136.138 24.864V26.56H126.41Z" fill="#80A5B3"/>
<path d="M114.277 26.56V24.864L116.997 24.224V13.472H114.277V11.776L119.397 10.56H121.925V24.224L124.645 24.864V26.56H114.277ZM116.485 5.632C116.485 4.8 116.773 4.10667 117.349 3.552C117.925 2.976 118.629 2.688 119.461 2.688C120.315 2.688 121.019 2.976 121.573 3.552C122.149 4.10667 122.437 4.8 122.437 5.632C122.437 6.48533 122.149 7.2 121.573 7.776C121.019 8.352 120.315 8.64 119.461 8.64C118.629 8.64 117.925 8.352 117.349 7.776C116.773 7.2 116.485 6.48533 116.485 5.632Z" fill="#80A5B3"/>
<path d="M102.165 26.56V24.864L104.885 24.224V3.872H102.165V2.176L107.285 0.960003H109.813V24.224L112.533 24.864V26.56H102.165Z" fill="#80A5B3"/>
<path d="M90.5323 26.56V24.864L93.2523 24.224V3.872H90.5323V2.176L95.6523 0.960003H98.1803V24.224L100.9 24.864V26.56H90.5323Z" fill="#F8FDFF"/>
<path d="M73.4147 18.368C73.4147 15.8507 74.1187 13.8453 75.5267 12.352C76.9561 10.8373 78.8867 10.08 81.3187 10.08C83.7934 10.08 85.6601 10.9227 86.9187 12.608C88.1987 14.2933 88.8387 16.3733 88.8387 18.848H78.3427C78.4921 20.4267 79.0574 21.792 80.0387 22.944C81.0201 24.0747 82.2787 24.64 83.8147 24.64C84.9667 24.64 86.2041 24.3947 87.5267 23.904L88.1987 25.728C86.2147 26.6027 84.2734 27.04 82.3747 27.04C79.6227 27.04 77.4361 26.24 75.8147 24.64C74.2147 23.0187 73.4147 20.928 73.4147 18.368ZM78.3427 16.864L83.7507 16.512C83.7507 16 83.7187 15.5307 83.6547 15.104C83.5907 14.656 83.4094 14.1227 83.1107 13.504C82.5774 12.608 81.9481 12.16 81.2227 12.16C80.3694 12.16 79.6654 12.5973 79.1107 13.472C78.7907 14.0053 78.5774 14.592 78.4707 15.232C78.3641 15.872 78.3214 16.416 78.3427 16.864Z" fill="#F8FDFF"/>
<path d="M53.7218 12.256V10.56H63.5138V12.256L61.3378 12.768L64.5698 20.416L67.7378 12.8L65.6258 12.256V10.56H72.5698V12.256L69.8818 12.96L64.1858 26.784H61.9458L56.0258 12.928L53.7218 12.256Z" fill="#F8FDFF"/>
<path d="M36.7085 22.592C36.7085 20.736 37.4658 19.328 38.9805 18.368C40.5165 17.3867 42.9912 16.896 46.4045 16.896V15.936C46.4045 15.296 46.3938 14.8373 46.3725 14.56C46.3725 14.2613 46.3298 13.9093 46.2445 13.504C46.1592 13.0987 46.0312 12.8107 45.8605 12.64C45.7112 12.4693 45.4765 12.32 45.1565 12.192C44.8365 12.0427 44.4418 11.968 43.9725 11.968L39.9085 15.488C38.4578 14.656 37.7325 13.3653 37.7325 11.616L38.6925 11.2C39.0978 11.0293 39.8872 10.8053 41.0605 10.528C42.2338 10.2293 43.3752 10.08 44.4845 10.08C49.0712 10.08 51.3645 11.9147 51.3645 15.584V24.16H53.8605V25.536C53.7538 25.6427 53.6045 25.7813 53.4125 25.952C53.2205 26.1227 52.8045 26.3467 52.1645 26.624C51.5245 26.9013 50.8632 27.04 50.1805 27.04C48.5592 27.04 47.3538 26.496 46.5645 25.408C45.1352 26.496 43.5778 27.04 41.8925 27.04C40.4205 27.04 39.1832 26.6667 38.1805 25.92C37.1992 25.1733 36.7085 24.064 36.7085 22.592ZM41.8605 22.304C41.8605 22.9227 42.0632 23.4133 42.4685 23.776C42.8952 24.1387 43.4072 24.32 44.0045 24.32C44.9645 24.32 45.7645 23.968 46.4045 23.264V18.88C45.2098 18.88 44.1538 19.2 43.2365 19.84C42.3192 20.4587 41.8605 21.28 41.8605 22.304Z" fill="#F8FDFF"/>
<path d="M21.451 26.56V24.864L24.171 24.224V13.472H21.451V11.776L26.571 10.56H29.099V12.48C30.699 10.88 32.5977 10.08 34.795 10.08C34.923 10.4853 34.987 10.9333 34.987 11.424C34.987 12.4053 34.8803 13.3227 34.667 14.176L30.635 13.504C30.123 13.7387 29.611 14.08 29.099 14.528V24.224L32.459 24.864V26.56H21.451Z" fill="#F8FDFF"/>
<path d="M0 10.944V4.16H19.68V10.944H17.728L16.416 6.624H12.448V24.064L15.392 24.768V26.56H4.288V24.768L7.232 24.064V6.624H3.232L1.92 10.944H0Z" fill="#F8FDFF"/>
</svg>
