<svg width="186" height="27" viewBox="0 0 186 27" fill="none" xmlns="http://www.w3.org/2000/svg">
<path d="M176.942 26.0801C175.726 26.0801 174.585 25.8668 173.518 25.4401C172.473 25.0135 171.566 24.4268 170.798 23.6801C170.03 22.9335 169.422 22.0375 168.974 20.9921C168.526 19.9468 168.302 18.8055 168.302 17.5681C168.302 16.3308 168.526 15.2001 168.974 14.1761C169.422 13.1308 170.03 12.2348 170.798 11.4881C171.566 10.7415 172.473 10.1655 173.518 9.76012C174.585 9.33345 175.726 9.12012 176.942 9.12012C178.158 9.12012 179.289 9.33345 180.334 9.76012C181.379 10.1655 182.286 10.7415 183.054 11.4881C183.843 12.2348 184.451 13.1308 184.878 14.1761C185.326 15.2001 185.55 16.3308 185.55 17.5681C185.55 18.7841 185.326 19.9148 184.878 20.9601C184.451 22.0055 183.843 22.9121 183.054 23.6801C182.286 24.4268 181.379 25.0135 180.334 25.4401C179.289 25.8668 178.158 26.0801 176.942 26.0801ZM173.454 17.5681C173.454 19.5735 173.742 21.1521 174.318 22.3041C174.915 23.4348 175.79 24.0001 176.942 24.0001C178.094 24.0001 178.958 23.4348 179.534 22.3041C180.131 21.1521 180.43 19.5735 180.43 17.5681C180.43 15.5841 180.131 14.0268 179.534 12.8961C178.958 11.7655 178.094 11.2001 176.942 11.2001C175.79 11.2001 174.915 11.7655 174.318 12.8961C173.742 14.0268 173.454 15.5841 173.454 17.5681Z" fill="#80A5B3"/>
<path d="M157.247 26.0801C156.031 26.0801 154.89 25.8668 153.823 25.4401C152.778 25.0135 151.871 24.4268 151.103 23.6801C150.335 22.9335 149.727 22.0375 149.279 20.9921C148.831 19.9468 148.607 18.8055 148.607 17.5681C148.607 16.3308 148.831 15.2001 149.279 14.1761C149.727 13.1308 150.335 12.2348 151.103 11.4881C151.871 10.7415 152.778 10.1655 153.823 9.76012C154.89 9.33345 156.031 9.12012 157.247 9.12012C158.463 9.12012 159.594 9.33345 160.639 9.76012C161.684 10.1655 162.591 10.7415 163.359 11.4881C164.148 12.2348 164.756 13.1308 165.183 14.1761C165.631 15.2001 165.855 16.3308 165.855 17.5681C165.855 18.7841 165.631 19.9148 165.183 20.9601C164.756 22.0055 164.148 22.9121 163.359 23.6801C162.591 24.4268 161.684 25.0135 160.639 25.4401C159.594 25.8668 158.463 26.0801 157.247 26.0801ZM153.759 17.5681C153.759 19.5735 154.047 21.1521 154.623 22.3041C155.22 23.4348 156.095 24.0001 157.247 24.0001C158.399 24.0001 159.263 23.4348 159.839 22.3041C160.436 21.1521 160.735 19.5735 160.735 17.5681C160.735 15.5841 160.436 14.0268 159.839 12.8961C159.263 11.7655 158.399 11.2001 157.247 11.2001C156.095 11.2001 155.22 11.7655 154.623 12.8961C154.047 14.0268 153.759 15.5841 153.759 17.5681Z" fill="#80A5B3"/>
<path d="M126.41 25.6001V23.9041L129.13 23.2641V12.5121H126.41V10.8161L131.53 9.60012H134.058V11.1681C135.359 9.80278 136.97 9.12012 138.89 9.12012C139.722 9.12012 140.468 9.24812 141.13 9.50412C141.812 9.73878 142.378 10.0801 142.826 10.5281C143.295 10.9761 143.658 11.5095 143.914 12.1281C144.17 12.7468 144.298 13.4188 144.298 14.1441V23.2641L147.018 23.9041V25.6001H137.29V23.9041L139.37 23.2641V15.0401C139.37 14.3788 139.327 13.8455 139.242 13.4401C139.178 13.0348 139.06 12.7255 138.89 12.5121C138.719 12.2775 138.484 12.1281 138.186 12.0641C137.908 11.9788 137.556 11.9361 137.13 11.9361C136.319 11.9361 135.295 12.4055 134.058 13.3441V23.2641L136.138 23.9041V25.6001H126.41Z" fill="#80A5B3"/>
<path d="M114.277 25.6V23.904L116.997 23.264V12.512H114.277V10.816L119.397 9.60003H121.925V23.264L124.645 23.904V25.6H114.277ZM116.485 4.67203C116.485 3.84003 116.773 3.14669 117.349 2.59203C117.925 2.01603 118.629 1.72803 119.461 1.72803C120.315 1.72803 121.019 2.01603 121.573 2.59203C122.149 3.14669 122.437 3.84003 122.437 4.67203C122.437 5.52536 122.149 6.24003 121.573 6.81603C121.019 7.39203 120.315 7.68003 119.461 7.68003C118.629 7.68003 117.925 7.39203 117.349 6.81603C116.773 6.24003 116.485 5.52536 116.485 4.67203Z" fill="#80A5B3"/>
<path d="M102.165 25.6V23.904L104.885 23.264V2.912H102.165V1.216L107.285 0H109.813V23.264L112.533 23.904V25.6H102.165Z" fill="#80A5B3"/>
<path d="M90.5323 25.6V23.904L93.2523 23.264V2.912H90.5323V1.216L95.6523 0H98.1803V23.264L100.9 23.904V25.6H90.5323Z" fill="#F8FDFF"/>
<path d="M73.4147 17.4081C73.4147 14.8908 74.1187 12.8855 75.5267 11.3921C76.9561 9.87745 78.8867 9.12012 81.3187 9.12012C83.7934 9.12012 85.6601 9.96278 86.9187 11.6481C88.1987 13.3335 88.8387 15.4135 88.8387 17.8881H78.3427C78.4921 19.4668 79.0574 20.8321 80.0387 21.9841C81.0201 23.1148 82.2787 23.6801 83.8147 23.6801C84.9667 23.6801 86.2041 23.4348 87.5267 22.9441L88.1987 24.7681C86.2147 25.6428 84.2734 26.0801 82.3747 26.0801C79.6227 26.0801 77.4361 25.2801 75.8147 23.6801C74.2147 22.0588 73.4147 19.9681 73.4147 17.4081ZM78.3427 15.9041L83.7507 15.5521C83.7507 15.0401 83.7187 14.5708 83.6547 14.1441C83.5907 13.6961 83.4094 13.1628 83.1107 12.5441C82.5774 11.6481 81.9481 11.2001 81.2227 11.2001C80.3694 11.2001 79.6654 11.6375 79.1107 12.5121C78.7907 13.0455 78.5774 13.6321 78.4707 14.2721C78.3641 14.9121 78.3214 15.4561 78.3427 15.9041Z" fill="#F8FDFF"/>
<path d="M53.7218 11.2961V9.6001H63.5138V11.2961L61.3378 11.8081L64.5698 19.4561L67.7378 11.8401L65.6258 11.2961V9.6001H72.5698V11.2961L69.8818 12.0001L64.1858 25.8241H61.9458L56.0258 11.9681L53.7218 11.2961Z" fill="#F8FDFF"/>
<path d="M36.7085 21.6321C36.7085 19.7761 37.4658 18.3681 38.9805 17.4081C40.5165 16.4268 42.9912 15.9361 46.4045 15.9361V14.9761C46.4045 14.3361 46.3938 13.8775 46.3725 13.6001C46.3725 13.3015 46.3298 12.9495 46.2445 12.5441C46.1592 12.1388 46.0312 11.8508 45.8605 11.6801C45.7112 11.5095 45.4765 11.3601 45.1565 11.2321C44.8365 11.0828 44.4418 11.0081 43.9725 11.0081L39.9085 14.5281C38.4578 13.6961 37.7325 12.4055 37.7325 10.6561L38.6925 10.2401C39.0978 10.0695 39.8872 9.84545 41.0605 9.56812C42.2338 9.26945 43.3752 9.12012 44.4845 9.12012C49.0712 9.12012 51.3645 10.9548 51.3645 14.6241V23.2001H53.8605V24.5761C53.7538 24.6828 53.6045 24.8215 53.4125 24.9921C53.2205 25.1628 52.8045 25.3868 52.1645 25.6641C51.5245 25.9415 50.8632 26.0801 50.1805 26.0801C48.5592 26.0801 47.3538 25.5361 46.5645 24.4481C45.1352 25.5361 43.5778 26.0801 41.8925 26.0801C40.4205 26.0801 39.1832 25.7068 38.1805 24.9601C37.1992 24.2135 36.7085 23.1041 36.7085 21.6321ZM41.8605 21.3441C41.8605 21.9628 42.0632 22.4535 42.4685 22.8161C42.8952 23.1788 43.4072 23.3601 44.0045 23.3601C44.9645 23.3601 45.7645 23.0081 46.4045 22.3041V17.9201C45.2098 17.9201 44.1538 18.2401 43.2365 18.8801C42.3192 19.4988 41.8605 20.3201 41.8605 21.3441Z" fill="#F8FDFF"/>
<path d="M21.451 25.6001V23.9041L24.171 23.2641V12.5121H21.451V10.8161L26.571 9.60012H29.099V11.5201C30.699 9.92012 32.5977 9.12012 34.795 9.12012C34.923 9.52545 34.987 9.97345 34.987 10.4641C34.987 11.4455 34.8803 12.3628 34.667 13.2161L30.635 12.5441C30.123 12.7788 29.611 13.1201 29.099 13.5681V23.2641L32.459 23.9041V25.6001H21.451Z" fill="#F8FDFF"/>
<path d="M0 9.9842V3.2002H19.68V9.9842H17.728L16.416 5.6642H12.448V23.1042L15.392 23.8082V25.6002H4.288V23.8082L7.232 23.1042V5.6642H3.232L1.92 9.9842H0Z" fill="#F8FDFF"/>
</svg>
